<svg width="100" height="100" viewBox="0 0 100 100" fill="none" xmlns="http://www.w3.org/2000/svg">
<g clip-path="url(#clip0_116_427)">
<rect width="100" height="100" fill="white"/>
<path d="M110 67C140.928 67 166 41.9279 166 11C166 -19.9279 140.928 -45 110 -45C79.0721 -45 54 -19.9279 54 11C54 41.9279 79.0721 67 110 67ZM159 11C159 38.062 137.062 60 110 60C82.938 60 61 38.062 61 11C61 -16.062 82.938 -38 110 -38C137.062 -38 159 -16.062 159 11Z" fill="#B39EF6" stroke="#B39EF6" stroke-width="2"/>
<path d="M37 84.5C68.2041 84.5 93.5 59.2041 93.5 28C93.5 -3.20409 68.2041 -28.5 37 -28.5C5.79591 -28.5 -19.5 -3.20409 -19.5 28C-19.5 59.2041 5.79591 84.5 37 84.5ZM85.5 28C85.5 54.7858 63.7858 76.5 37 76.5C10.2142 76.5 -11.5 54.7858 -11.5 28C-11.5 1.21419 10.2142 -20.5 37 -20.5C63.7858 -20.5 85.5 1.21419 85.5 28Z" fill="#B39EF6" stroke="#4500AD" stroke-width="3"/>
<path d="M58 84.5C89.2041 84.5 114.5 59.2041 114.5 28C114.5 -3.20409 89.2041 -28.5 58 -28.5C26.7959 -28.5 1.5 -3.20409 1.5 28C1.5 59.2041 26.7959 84.5 58 84.5ZM106.5 28C106.5 54.7858 84.7858 76.5 58 76.5C31.2142 76.5 9.5 54.7858 9.5 28C9.5 1.21419 31.2142 -20.5 58 -20.5C84.7858 -20.5 106.5 1.21419 106.5 28Z" fill="#B39EF6" stroke="#B39EF6" stroke-width="3"/>
<path d="M66 151C98.0325 151 124 125.033 124 93C124 60.9675 98.0325 35 66 35C33.9675 35 8 60.9675 8 93C8 125.033 33.9675 151 66 151ZM113 93C113 118.957 91.9574 140 66 140C40.0426 140 19 118.957 19 93C19 67.0426 40.0426 46 66 46C91.9574 46 113 67.0426 113 93Z" fill="#4500AD" stroke="#B39EF6" stroke-width="6"/>
<path d="M71 131.5C106.07 131.5 134.5 103.07 134.5 68C134.5 32.9299 106.07 4.5 71 4.5C35.9299 4.5 7.5 32.9299 7.5 68C7.5 103.07 35.9299 131.5 71 131.5ZM127.773 68C127.773 99.3547 102.355 124.773 71 124.773C39.6453 124.773 14.2273 99.3547 14.2273 68C14.2273 36.6453 39.6453 11.2273 71 11.2273C102.355 11.2273 127.773 36.6453 127.773 68Z" fill="#4500AD" stroke="#4500AD"/>
<path d="M20 131.5C55.0701 131.5 83.5 103.07 83.5 68C83.5 32.9299 55.0701 4.5 20 4.5C-15.0701 4.5 -43.5 32.9299 -43.5 68C-43.5 103.07 -15.0701 131.5 20 131.5ZM76.7727 68C76.7727 99.3547 51.3547 124.773 20 124.773C-11.3547 124.773 -36.7727 99.3547 -36.7727 68C-36.7727 36.6453 -11.3547 11.2273 20 11.2273C51.3547 11.2273 76.7727 36.6453 76.7727 68Z" fill="#4500AD" stroke="#4500AD"/>
<path d="M-2 118.5C30.3087 118.5 56.5 92.3087 56.5 60C56.5 27.6913 30.3087 1.5 -2 1.5C-34.3087 1.5 -60.5 27.6913 -60.5 60C-60.5 92.3087 -34.3087 118.5 -2 118.5ZM44.5 60C44.5 85.6812 23.6812 106.5 -2 106.5C-27.6812 106.5 -48.5 85.6812 -48.5 60C-48.5 34.3188 -27.6812 13.5 -2 13.5C23.6812 13.5 44.5 34.3188 44.5 60Z" fill="#4500AD" stroke="#B39EF6" stroke-width="7"/>
</g>
<defs>
<clipPath id="clip0_116_427">
<rect width="100" height="100" fill="white"/>
</clipPath>
</defs>
</svg>
