<svg width="253" height="38" viewBox="0 0 253 38" fill="none" xmlns="http://www.w3.org/2000/svg">
<path d="M32 19C32 27.8366 24.8366 35 16 35C7.16344 35 0 27.8366 0 19C0 10.1634 7.16344 3 16 3C24.8366 3 32 10.1634 32 19Z" fill="#0022CC" fill-opacity="0.7"/>
<path d="M48 19C48 27.8366 40.8366 35 32 35C23.1634 35 16 27.8366 16 19C16 10.1634 23.1634 3 32 3C40.8366 3 48 10.1634 48 19Z" fill="#336600" fill-opacity="0.7"/>
<path d="M65.728 14.456H70.048V17.528H70.112C70.3253 17.016 70.6133 16.5467 70.976 16.12C71.3387 15.672 71.7547 15.2987 72.224 15C72.6933 14.68 73.1947 14.4347 73.728 14.264C74.2613 14.0933 74.816 14.008 75.392 14.008C75.6907 14.008 76.0213 14.0613 76.384 14.168V18.392C76.1707 18.3493 75.9147 18.3173 75.616 18.296C75.3173 18.2533 75.0293 18.232 74.752 18.232C73.92 18.232 73.216 18.3707 72.64 18.648C72.064 18.9253 71.5947 19.3093 71.232 19.8C70.8907 20.2693 70.6453 20.824 70.496 21.464C70.3467 22.104 70.272 22.7973 70.272 23.544V31H65.728V14.456ZM82.8375 11.896H78.2935V8.152H82.8375V11.896ZM78.2935 14.456H82.8375V31H78.2935V14.456ZM86.4155 14.456H90.7355V16.76H90.8315C91.4075 15.8 92.1542 15.1067 93.0715 14.68C93.9888 14.232 94.9275 14.008 95.8875 14.008C97.1035 14.008 98.0955 14.1787 98.8635 14.52C99.6528 14.84 100.272 15.2987 100.72 15.896C101.168 16.472 101.477 17.1867 101.648 18.04C101.84 18.872 101.936 19.8 101.936 20.824V31H97.3915V21.656C97.3915 20.2907 97.1782 19.2773 96.7515 18.616C96.3248 17.9333 95.5675 17.592 94.4795 17.592C93.2422 17.592 92.3462 17.9653 91.7915 18.712C91.2368 19.4373 90.9595 20.6427 90.9595 22.328V31H86.4155V14.456ZM105.8 8.152H110.344V20.408L116.072 14.456H121.448L115.208 20.536L122.152 31H116.648L112.104 23.608L110.344 25.304V31H105.8V8.152ZM123.567 19.544C123.631 18.4773 123.898 17.592 124.367 16.888C124.837 16.184 125.434 15.6187 126.159 15.192C126.885 14.7653 127.695 14.4667 128.591 14.296C129.509 14.104 130.426 14.008 131.343 14.008C132.175 14.008 133.018 14.072 133.871 14.2C134.725 14.3067 135.503 14.5307 136.207 14.872C136.911 15.2133 137.487 15.6933 137.935 16.312C138.383 16.9093 138.607 17.7093 138.607 18.712V27.32C138.607 28.0667 138.65 28.7813 138.735 29.464C138.821 30.1467 138.97 30.6587 139.183 31H134.575C134.49 30.744 134.415 30.488 134.351 30.232C134.309 29.9547 134.277 29.6773 134.255 29.4C133.53 30.1467 132.677 30.6693 131.695 30.968C130.714 31.2667 129.711 31.416 128.687 31.416C127.898 31.416 127.162 31.32 126.479 31.128C125.797 30.936 125.199 30.6373 124.687 30.232C124.175 29.8267 123.77 29.3147 123.471 28.696C123.194 28.0773 123.055 27.3413 123.055 26.488C123.055 25.5493 123.215 24.7813 123.535 24.184C123.877 23.5653 124.303 23.0747 124.815 22.712C125.349 22.3493 125.946 22.0827 126.607 21.912C127.29 21.72 127.973 21.5707 128.655 21.464C129.338 21.3573 130.01 21.272 130.671 21.208C131.333 21.144 131.919 21.048 132.431 20.92C132.943 20.792 133.349 20.6107 133.647 20.376C133.946 20.12 134.085 19.7573 134.063 19.288C134.063 18.7973 133.978 18.4133 133.807 18.136C133.658 17.8373 133.445 17.6133 133.167 17.464C132.911 17.2933 132.602 17.1867 132.239 17.144C131.898 17.08 131.525 17.048 131.119 17.048C130.223 17.048 129.519 17.24 129.007 17.624C128.495 18.008 128.197 18.648 128.111 19.544H123.567ZM134.063 22.904C133.871 23.0747 133.626 23.2133 133.327 23.32C133.05 23.4053 132.741 23.48 132.399 23.544C132.079 23.608 131.738 23.6613 131.375 23.704C131.013 23.7467 130.65 23.8 130.287 23.864C129.946 23.928 129.605 24.0133 129.263 24.12C128.943 24.2267 128.655 24.376 128.399 24.568C128.165 24.7387 127.973 24.9627 127.823 25.24C127.674 25.5173 127.599 25.8693 127.599 26.296C127.599 26.7013 127.674 27.0427 127.823 27.32C127.973 27.5973 128.175 27.8213 128.431 27.992C128.687 28.1413 128.986 28.248 129.327 28.312C129.669 28.376 130.021 28.408 130.383 28.408C131.279 28.408 131.973 28.2587 132.463 27.96C132.954 27.6613 133.317 27.3093 133.551 26.904C133.786 26.4773 133.925 26.0507 133.967 25.624C134.031 25.1973 134.063 24.856 134.063 24.6V22.904ZM146.806 11.896H142.262V8.152H146.806V11.896ZM142.262 14.456H146.806V31H142.262V14.456ZM162.811 25.624C162.811 26.1147 162.907 26.5413 163.099 26.904C163.312 27.2453 163.579 27.5333 163.899 27.768C164.219 27.9813 164.581 28.1413 164.987 28.248C165.413 28.3547 165.851 28.408 166.299 28.408C166.619 28.408 166.949 28.376 167.291 28.312C167.653 28.2267 167.973 28.1093 168.251 27.96C168.549 27.7893 168.795 27.576 168.987 27.32C169.179 27.0427 169.275 26.7013 169.275 26.296C169.275 25.6133 168.816 25.1013 167.899 24.76C167.003 24.4187 165.744 24.0773 164.123 23.736C163.461 23.5867 162.811 23.416 162.171 23.224C161.552 23.0107 160.997 22.744 160.507 22.424C160.016 22.0827 159.621 21.6667 159.323 21.176C159.024 20.664 158.875 20.0453 158.875 19.32C158.875 18.2533 159.077 17.3787 159.483 16.696C159.909 16.0133 160.464 15.48 161.147 15.096C161.829 14.6907 162.597 14.4133 163.451 14.264C164.304 14.0933 165.179 14.008 166.075 14.008C166.971 14.008 167.835 14.0933 168.667 14.264C169.52 14.4347 170.277 14.7227 170.939 15.128C171.6 15.5333 172.144 16.0773 172.571 16.76C173.019 17.4213 173.285 18.264 173.371 19.288H169.051C168.987 18.4133 168.656 17.8267 168.059 17.528C167.461 17.208 166.757 17.048 165.947 17.048C165.691 17.048 165.413 17.0693 165.115 17.112C164.816 17.1333 164.539 17.1973 164.283 17.304C164.048 17.4107 163.845 17.5707 163.675 17.784C163.504 17.976 163.419 18.2427 163.419 18.584C163.419 18.9893 163.568 19.32 163.867 19.576C164.165 19.832 164.549 20.0453 165.019 20.216C165.509 20.3653 166.064 20.504 166.683 20.632C167.301 20.76 167.931 20.8987 168.571 21.048C169.232 21.1973 169.872 21.3787 170.491 21.592C171.131 21.8053 171.696 22.0933 172.187 22.456C172.677 22.7973 173.072 23.2347 173.371 23.768C173.669 24.28 173.819 24.92 173.819 25.688C173.819 26.776 173.595 27.6933 173.147 28.44C172.72 29.1653 172.155 29.752 171.451 30.2C170.747 30.648 169.936 30.9573 169.019 31.128C168.123 31.32 167.205 31.416 166.267 31.416C165.307 31.416 164.368 31.32 163.451 31.128C162.533 30.936 161.712 30.616 160.987 30.168C160.283 29.72 159.696 29.1333 159.227 28.408C158.779 27.6613 158.533 26.7333 158.491 25.624H162.811ZM182.238 14.456H185.566V17.496H182.238V25.688C182.238 26.456 182.366 26.968 182.622 27.224C182.878 27.48 183.39 27.608 184.158 27.608C184.414 27.608 184.659 27.5973 184.894 27.576C185.129 27.5547 185.353 27.5227 185.566 27.48V31C185.182 31.064 184.755 31.1067 184.286 31.128C183.817 31.1493 183.358 31.16 182.91 31.16C182.206 31.16 181.534 31.1067 180.894 31C180.275 30.9147 179.721 30.7333 179.23 30.456C178.761 30.1787 178.387 29.784 178.11 29.272C177.833 28.76 177.694 28.088 177.694 27.256V17.496H174.942V14.456H177.694V9.496H182.238V14.456ZM203.248 31H198.928V28.696H198.832C198.256 29.656 197.509 30.3493 196.592 30.776C195.675 31.2027 194.736 31.416 193.776 31.416C192.56 31.416 191.557 31.256 190.768 30.936C190 30.616 189.392 30.168 188.944 29.592C188.496 28.9947 188.176 28.28 187.984 27.448C187.813 26.5947 187.728 25.656 187.728 24.632V14.456H192.272V23.8C192.272 25.1653 192.485 26.1893 192.912 26.872C193.339 27.5333 194.096 27.864 195.184 27.864C196.421 27.864 197.317 27.5013 197.872 26.776C198.427 26.0293 198.704 24.8133 198.704 23.128V14.456H203.248V31ZM218.441 22.68C218.441 21.9973 218.377 21.3467 218.249 20.728C218.121 20.088 217.897 19.5333 217.577 19.064C217.278 18.5733 216.883 18.1787 216.393 17.88C215.902 17.5813 215.283 17.432 214.537 17.432C213.79 17.432 213.161 17.5813 212.649 17.88C212.137 18.1787 211.721 18.5733 211.401 19.064C211.102 19.5547 210.878 20.12 210.729 20.76C210.601 21.3787 210.537 22.0293 210.537 22.712C210.537 23.352 210.611 23.992 210.761 24.632C210.91 25.272 211.145 25.848 211.465 26.36C211.806 26.8507 212.222 27.256 212.713 27.576C213.225 27.8747 213.833 28.024 214.537 28.024C215.283 28.024 215.902 27.8747 216.393 27.576C216.905 27.2773 217.31 26.8827 217.609 26.392C217.907 25.88 218.121 25.304 218.249 24.664C218.377 24.024 218.441 23.3627 218.441 22.68ZM218.505 28.888H218.441C217.907 29.784 217.203 30.4347 216.329 30.84C215.475 31.224 214.505 31.416 213.417 31.416C212.179 31.416 211.091 31.1813 210.153 30.712C209.214 30.2213 208.435 29.5707 207.817 28.76C207.219 27.928 206.761 26.9787 206.441 25.912C206.142 24.8453 205.993 23.736 205.993 22.584C205.993 21.4747 206.142 20.408 206.441 19.384C206.761 18.3387 207.219 17.4213 207.817 16.632C208.435 15.8427 209.203 15.2133 210.121 14.744C211.038 14.2533 212.105 14.008 213.321 14.008C214.302 14.008 215.23 14.2213 216.105 14.648C217.001 15.0533 217.705 15.6613 218.217 16.472H218.281V8.152H222.825V31H218.505V28.888ZM230.931 11.896H226.387V8.152H230.931V11.896ZM226.387 14.456H230.931V31H226.387V14.456ZM238.541 22.744C238.541 23.4053 238.605 24.056 238.733 24.696C238.861 25.3147 239.075 25.88 239.373 26.392C239.693 26.8827 240.109 27.2773 240.621 27.576C241.133 27.8747 241.773 28.024 242.541 28.024C243.309 28.024 243.949 27.8747 244.461 27.576C244.995 27.2773 245.411 26.8827 245.709 26.392C246.029 25.88 246.253 25.3147 246.381 24.696C246.509 24.056 246.573 23.4053 246.573 22.744C246.573 22.0827 246.509 21.432 246.381 20.792C246.253 20.152 246.029 19.5867 245.709 19.096C245.411 18.6053 244.995 18.2107 244.461 17.912C243.949 17.592 243.309 17.432 242.541 17.432C241.773 17.432 241.133 17.592 240.621 17.912C240.109 18.2107 239.693 18.6053 239.373 19.096C239.075 19.5867 238.861 20.152 238.733 20.792C238.605 21.432 238.541 22.0827 238.541 22.744ZM233.997 22.744C233.997 21.4213 234.2 20.2267 234.605 19.16C235.011 18.072 235.587 17.1547 236.333 16.408C237.08 15.64 237.976 15.0533 239.021 14.648C240.067 14.2213 241.24 14.008 242.541 14.008C243.843 14.008 245.016 14.2213 246.061 14.648C247.128 15.0533 248.035 15.64 248.781 16.408C249.528 17.1547 250.104 18.072 250.509 19.16C250.915 20.2267 251.117 21.4213 251.117 22.744C251.117 24.0667 250.915 25.2613 250.509 26.328C250.104 27.3947 249.528 28.312 248.781 29.08C248.035 29.8267 247.128 30.4027 246.061 30.808C245.016 31.2133 243.843 31.416 242.541 31.416C241.24 31.416 240.067 31.2133 239.021 30.808C237.976 30.4027 237.08 29.8267 236.333 29.08C235.587 28.312 235.011 27.3947 234.605 26.328C234.2 25.2613 233.997 24.0667 233.997 22.744Z" fill="black"/>
</svg>
