<svg width="298" height="40" viewBox="0 0 298 40" fill="none" xmlns="http://www.w3.org/2000/svg">
<path d="M2.55381 18.4384C3.30261 18.4384 6.31116 17.9983 7.72549 17.5282C8.32609 17.3286 9.38632 17.0621 10.1904 16.8167C10.9648 16.5804 11.4782 16.35 12.7859 15.7292C13.4567 15.4107 14.2735 15.1951 14.9431 14.861C15.7527 14.457 17.2048 14.0828 18.759 13.462C19.4836 13.1726 20.3572 12.7066 21.2266 12.4158C22.2782 12.0642 23.5124 11.6823 24.4903 11.4823C25.2289 11.3312 25.8227 11.0609 27.0652 10.6381C27.7079 10.4194 28.2663 10.2607 30.7905 9.12982C31.8408 8.65931 33.4973 8.08428 35.3034 7.68153C36.1182 7.49983 37.4545 7.36946 39.3818 7.25877C42.6988 7.06828 45.0558 7.32412 45.3216 7.50149C45.8359 7.84462 46.5628 7.99092 47.6953 8.08028C48.6992 8.15948 49.4487 8.83376 50.1182 9.12449C50.7299 9.39009 51.4047 9.72461 52.3373 9.99133C53.0701 10.2009 53.715 10.2581 55.1107 10.9449C56.3912 11.575 57.3125 11.5917 58.8854 11.681C60.6481 11.7811 62.7753 11.8157 63.3089 11.881C63.8427 11.9464 64.4621 12.0371 65.1516 12.2585C65.7371 12.4464 66.3728 12.6585 67.3468 12.8146C69.9069 13.2247 71.4332 13.8134 72.4551 14.2135C74.1982 14.8959 74.8548 15.059 75.8514 15.5018C78.507 16.6815 79.297 16.6594 80.8259 16.6827C81.6225 16.6949 82.3162 16.35 83.0717 16.1279C84.1023 15.825 84.7598 15.4164 85.404 15.2164C86.0028 15.0305 86.5798 14.4856 87.3799 14.0388C88.0064 13.689 88.8876 13.24 89.601 12.9273C90.3848 12.5837 91.2406 12.0851 92.066 11.5496C92.6333 11.1816 93.2871 10.7942 93.8867 10.3501C94.8356 9.64722 95.2857 9.10582 96.0405 8.32833C96.3812 7.97741 96.6194 7.68153 97.0831 7.54817C98.6011 7.11156 99.2829 7.85756 99.8165 8.0356C100.35 8.21364 100.75 8.347 100.884 8.50169C101.475 9.18487 99.6426 10.034 99.1543 10.4574C98.6183 10.9222 98.2649 11.3676 97.9765 11.9017C97.7054 12.4037 97.5108 12.9679 97.2656 13.6127C97.0427 14.1992 96.7114 14.7016 96.4882 15.2357C96.2712 15.7551 96.1331 16.302 95.9772 16.8801C95.768 17.6559 95.8213 18.5664 95.9759 19.2365C96.1124 19.8285 96.3543 20.3028 96.5974 20.8369C96.8338 21.3561 96.9752 21.9031 97.2856 22.4812C97.6654 23.1884 97.9052 24.4743 98.197 25.4592C98.4883 26.4425 98.3529 27.4562 98.4635 28.1937C98.5662 28.8787 98.6193 29.5046 98.7519 30.1494C98.8127 30.4453 98.8858 30.7062 98.8199 30.8623C98.3604 31.9494 95.339 30.6195 94.0712 30.1981C93.3675 29.9642 92.9026 29.5612 92.3972 29.1232L92.3811 29.1092C91.8865 28.6806 91.5603 28.131 90.8941 27.5096C90.1804 26.8438 89.5191 25.9999 88.8949 25.6185C88.3061 25.2588 87.6084 24.709 86.9409 24.1749C86.449 23.7813 85.7005 23.4634 83.9251 23.4167C82.9809 23.3919 82.0577 24.0822 81.4335 24.4383C80.7778 24.8123 79.9685 25.0611 79.4349 25.3498C78.9185 25.6292 78.3696 26.0373 77.836 26.306C77.268 26.592 76.6375 26.9281 75.95 27.3489C74.6076 28.1704 74.106 28.4831 73.4398 28.8172C72.8042 29.1359 70.9216 29.7687 69.3547 30.3061C68.5804 30.5717 67.889 30.7076 67.0889 30.8402C66.5027 30.9375 65.7146 31.1503 64.7799 31.263C63.9333 31.3651 63.3136 31.4624 60.878 31.5297C60.1584 31.5496 57.8694 31.6411 54.6057 31.6631C52.2149 31.6792 49.6379 31.8625 48.2382 31.9298C47.4615 31.9672 45.6487 32.0412 43.4509 32.1072C42.1732 32.1455 39.7063 32.8413 37.3126 32.5093C36.2214 32.3579 35.3333 32.1745 34.7777 32.0638C34.1419 31.9372 33.4254 31.9078 32.492 31.7971C31.9206 31.7293 31.4681 31.7304 30.4328 31.6637C25.9262 31.3735 25.0313 31.5077 24.032 31.397C22.3293 31.2084 20.5491 31.1076 19.6111 30.9969C18.9014 30.9132 18.1908 30.8409 17.3027 30.6862C16.2128 30.4963 15.526 30.1314 14.9251 29.9081C14.1554 29.622 13.3489 29.1979 12.3729 28.8638C11.7525 28.6515 10.8653 28.1337 10.1504 27.6636C9.40707 27.1747 6.92139 26.4027 5.73157 25.7745C5.06277 25.4215 4.42182 25.1971 3.22467 24.7523C2.54886 24.5013 1.93558 24.2182 1.33467 23.9075C1.17507 23.825 1.0029 23.7301 1.00024 23.6628C0.978785 23.1206 2.41524 23.8155 3.10675 24.0389C3.73355 24.2413 4.28325 24.2609 4.81688 24.3283C5.45249 24.4085 6.23654 24.661 8.91665 24.6843C9.61592 24.6904 9.88064 24.529 10.0805 24.3963C10.1735 24.3345 10.1484 24.1756 10.0825 24.0635C9.77786 23.5461 8.82139 23.242 8.15186 22.8406C7.60168 22.5108 7.08661 22.1298 6.55299 21.7737C6.03875 21.4306 5.48774 21.1083 4.93213 20.7735C4.1739 20.3167 3.62239 19.8627 3.08876 19.4846C2.95486 19.3732 2.82295 19.2412 2.73301 19.1072C2.64308 18.9732 2.59911 18.8411 2.42057 18.7051M48.9211 7.36946C49.494 7.0614 51.7058 5.20369 52.805 4.2595C53.4614 3.69564 53.9362 2.92856 54.7363 1.9937C55.0034 1.68166 55.3152 1.45893 55.5811 1.1702C55.7901 0.943134 56.3785 0.968159 57.066 1.10019C57.6677 1.21572 57.8468 1.90035 58.2445 2.47447C59.0199 3.59375 59.7974 5.62377 60.5742 7.57817C61.1338 9.14583 61.5762 9.8553 62.1538 10.5228C62.3316 10.7448 62.5515 11.0529 62.9112 11.5036M73.8368 12.9706C74.2779 12.8826 75.2545 12.5278 77.6248 11.773C78.6412 11.4494 80.704 11.5036 81.9624 11.6583C82.2676 11.6959 82.4961 12.0357 82.6959 12.4338C83.2353 13.5082 82.3215 14.1682 81.9658 14.7023L81.4328 15.5025C81.3435 15.6365 81.2556 15.7685 81.0318 16.0379M64.3768 32.5746C65.6972 32.5746 68.3714 32.6626 69.1481 32.8407C69.9369 33.0214 70.6364 33.3294 71.1701 33.5075C71.7434 33.6987 72.7203 33.7748 73.5011 33.5095C74.3738 33.2128 74.988 33.02 75.5889 32.82C76.2777 32.5907 76.7654 32.1318 77.2991 31.6211C77.8843 31.0609 78.1431 30.4435 78.4103 29.8874C78.7392 29.2027 78.9879 28.7098 79.1438 28.1537C79.2104 27.5082 79.2997 26.9761 79.3216 26.51C79.3436 26.308 79.3876 26.176 79.4329 26.0399M48.5214 32.9747C49.0064 32.9747 50.1602 33.1507 51.1155 33.6835C52.2662 34.3252 53.2221 34.8817 53.9822 35.2631C54.666 35.6063 56.2386 36.6128 57.6223 37.4623C58.3066 37.8824 58.9114 38.3518 59.445 38.5752C59.9781 38.7983 60.3783 39.0199 60.5562 38.9986C61.2172 38.9193 59.5856 36.6768 59.2478 34.2936C58.8261 33.3761 58.3837 33.02 57.7175 32.5986C57.539 32.4866 57.3631 32.3986 56.9154 32.1745M16.9437 30.3075C17.4739 30.2635 18.4493 30.1741 19.4052 29.82C20.007 29.5972 20.5385 29.3313 21.3819 28.5104C21.9383 27.9689 22.3159 27.2882 22.561 26.7087C22.8129 26.1134 23.1153 25.4211 23.2279 24.3989C23.3691 23.117 23.0753 21.0656 22.5863 19.9107C21.8641 18.205 21.2979 17.6409 20.7876 17.3282C20.0885 16.8997 19.302 16.7047 18.5019 16.594C17.0782 16.5273 16.5026 16.438 15.9703 16.416C15.7458 16.394 15.6139 16.35 15.2115 16.3046M22.9394 27.7736C23.6003 27.9937 25.2871 28.7925 26.1125 29.3279C26.6304 29.6639 27.2004 29.862 27.8 30.0181C28.6397 30.2366 29.199 29.8194 29.8206 29.4866C30.8634 28.9284 31.8611 28.5311 32.995 27.9757C33.6915 27.6345 34.2621 27.5522 34.7957 27.2635C35.0492 27.1264 35.3293 27.0188 35.5952 26.8634C35.8417 26.7193 34.3541 26.707 31.7578 26.6853L31.6846 26.6847C29.649 26.6678 28.0505 26.4854 27.3397 26.3293C26.1385 26.2626 25.6069 26.1733 24.8747 26.0626C24.6302 26.0399 24.3224 26.0399 23.7389 25.9066M12.3949 19.3873C12.1305 19.3873 11.6291 19.4039 11.4709 19.4828C11.1746 19.6306 11.0378 19.8286 10.9415 19.9373C10.8567 20.0329 10.8454 20.6326 10.8743 20.9921C10.8862 21.139 11.0283 21.2545 11.1448 21.4296C11.2432 21.5776 11.3777 21.6962 11.5196 21.8093C11.6467 21.9105 11.7946 21.9554 11.9525 22.0178C12.2546 22.1372 12.4359 22.1055 12.7674 22.081C13.3765 22.0359 13.7942 21.9139 13.8605 21.9056C14.0517 21.8818 14.1603 21.7643 14.2689 21.6309C14.3857 21.4876 14.3858 21.3342 14.386 20.9762L14.386 20.9649C14.3863 20.5569 14.2278 20.3469 14.1447 20.2008C14.0731 20.0749 13.9034 20.0212 13.7202 19.9214C13.5163 19.8103 13.3036 19.7546 13.112 19.696C13.0452 19.6875 12.962 19.6628 12.8621 19.6211C12.82 19.6042 12.7953 19.596 12.7448 19.5875M90.8538 21.1639C90.9033 21.1639 90.9783 21.1639 91.9384 21.3559C92.8509 21.5385 94.619 21.9321 95.5804 22.1485C96.644 22.388 96.9285 22.49 97.2407 22.5774C97.4292 22.6401 97.5549 22.678 97.6672 22.703C97.7177 22.7156 97.7548 22.728 97.718 22.6657M95.9176 17.6724C95.9052 17.6724 95.8928 17.6724 95.3542 17.6662C94.8156 17.66 93.751 17.6476 93.0355 17.6164C92.32 17.5853 91.9858 17.5357 91.5042 17.4296C91.0226 17.3236 90.4037 17.1625 90.0415 17.0733C89.6794 16.9842 89.5927 16.9718 89.5171 16.9654C89.4416 16.959 89.3797 16.959 89.3159 16.959M87.7799 14.3697C87.5942 14.631 86.9202 15.2302 85.7589 16.6538C85.258 17.2679 85.1546 17.7474 85.0984 18.5482C85.0792 20.5012 85.1164 21.9518 85.1726 22.3815C85.1918 22.6625 85.1918 23.0714 85.1918 23.4926M21.4841 16.8169H22.5307C23.5287 16.8169 25.4997 16.8169 26.6853 16.8534C28.2149 16.9005 28.806 17.1114 29.3085 17.2951C29.5732 17.3919 29.8353 17.552 30.6423 17.8708C31.4494 18.1896 32.7877 18.6767 33.5744 18.952C35.1165 19.4916 36.1308 19.5476 37.0735 19.169C38.2939 18.6788 39.1539 18.0723 39.5341 17.9129C40.6917 17.4274 42.0296 16.597 42.4112 16.387C42.7255 16.214 43.379 16.0553 43.9836 15.9929C44.586 15.9308 45.2725 16.1261 45.7658 16.4468C46.4014 16.86 47.1911 17.0132 47.5601 17.0996C47.6803 17.1277 47.8532 17.1121 49.2184 17.039C50.5836 16.966 53.1385 16.8198 54.6859 16.7689C56.6944 16.7028 57.3908 16.8656 57.9781 16.9759C59.5171 17.2651 59.9723 17.2346 60.6348 17.2719C61.0208 17.2936 61.2995 17.5785 61.9982 18.1918C62.7785 18.8768 63.6797 18.907 65.4361 18.9206C66.1668 18.687 66.7043 18.1985 67.0638 17.7774C67.1253 17.7033 67.1983 17.6302 67.2735 17.5549M55.3285 24.0495C55.7185 23.8539 56.8474 23.5336 58.5702 23.4351C59.8047 23.3645 61.7773 23.434 63.985 23.6292C66.1926 23.8244 68.5772 24.1897 69.8908 24.3779C71.3715 24.5901 71.6962 24.5905 72.1121 24.6274C72.7688 24.6856 73.3914 24.5912 73.9422 24.4931C75.3436 24.2433 76.3371 24.2473 77.0656 24.0381C77.8899 23.755 78.7217 23.217 79.4502 22.551C79.5622 22.4266 79.6109 22.3535 79.7348 22.2044M31.1088 10.1929C31.2142 10.1929 31.5848 10.1929 32.2222 10.2721C32.8595 10.5095 33.5017 10.7781 34.06 11.0171C34.302 11.1506 34.4601 11.3089 34.7828 11.472M33.6646 14.9895C33.9825 15.0951 34.7253 15.7314 35.4194 16.3997C35.5799 16.534 35.7381 16.6396 35.8986 16.7467L36.3802 17.0681M42.2907 9.39349C42.3961 9.39349 42.6086 9.49901 42.9273 9.71166C43.246 9.92431 43.8306 10.2441 44.5487 10.6166C44.845 10.7781 45.0031 10.8836 45.4855 11.3121M55.2298 13.3907C55.3352 13.3907 56.3384 13.3907 57.8552 13.417C58.5812 13.4962 59.0077 13.6033 59.4861 13.7096C59.701 13.7632 59.8591 13.816 60.0221 13.8703M70.565 16.2686C71.2519 16.4269 72.9548 16.8538 74.0226 17.0673C74.2375 17.1208 74.3956 17.1736 74.5562 17.2272C74.7167 17.2807 74.8749 17.3335 75.3573 17.3878" stroke="#525252" stroke-width="2" stroke-linecap="round"/>
<path d="M118.92 15.456H122.344V18.656H122.408C122.515 18.208 122.717 17.7707 123.016 17.344C123.336 16.9173 123.709 16.5333 124.136 16.192C124.584 15.8293 125.075 15.5413 125.608 15.328C126.141 15.1147 126.685 15.008 127.24 15.008C127.667 15.008 127.955 15.0187 128.104 15.04C128.275 15.0613 128.445 15.0827 128.616 15.104V18.624C128.36 18.5813 128.093 18.5493 127.816 18.528C127.56 18.4853 127.304 18.464 127.048 18.464C126.429 18.464 125.843 18.592 125.288 18.848C124.755 19.0827 124.285 19.4453 123.88 19.936C123.475 20.4053 123.155 20.992 122.92 21.696C122.685 22.4 122.568 23.2107 122.568 24.128V32H118.92V15.456ZM130.266 9.152H133.914V12.608H130.266V9.152ZM130.266 15.456H133.914V32H130.266V15.456ZM137.889 15.456H141.345V17.888L141.409 17.952C141.963 17.0347 142.689 16.32 143.585 15.808C144.481 15.2747 145.473 15.008 146.561 15.008C148.374 15.008 149.803 15.4773 150.849 16.416C151.894 17.3547 152.417 18.7627 152.417 20.64V32H148.769V21.6C148.726 20.2987 148.449 19.36 147.937 18.784C147.425 18.1867 146.625 17.888 145.537 17.888C144.918 17.888 144.363 18.0053 143.873 18.24C143.382 18.4533 142.966 18.7627 142.625 19.168C142.283 19.552 142.017 20.0107 141.825 20.544C141.633 21.0773 141.537 21.6427 141.537 22.24V32H137.889V15.456ZM156.36 9.152H160.008V22.144L166.6 15.456H171.08L164.744 21.536L171.688 32H167.24L162.184 23.968L160.008 26.08V32H156.36V9.152ZM187.307 28.32C187.307 28.768 187.361 29.088 187.467 29.28C187.595 29.472 187.83 29.568 188.171 29.568C188.278 29.568 188.406 29.568 188.555 29.568C188.705 29.568 188.875 29.5467 189.067 29.504V32.032C188.939 32.0747 188.769 32.1173 188.555 32.16C188.363 32.224 188.161 32.2773 187.947 32.32C187.734 32.3627 187.521 32.3947 187.307 32.416C187.094 32.4373 186.913 32.448 186.763 32.448C186.017 32.448 185.398 32.2987 184.907 32C184.417 31.7013 184.097 31.1787 183.947 30.432C183.222 31.136 182.326 31.648 181.259 31.968C180.214 32.288 179.201 32.448 178.219 32.448C177.473 32.448 176.758 32.3413 176.075 32.128C175.393 31.936 174.785 31.648 174.251 31.264C173.739 30.8587 173.323 30.3573 173.003 29.76C172.705 29.1413 172.555 28.4267 172.555 27.616C172.555 26.592 172.737 25.76 173.099 25.12C173.483 24.48 173.974 23.9787 174.571 23.616C175.19 23.2533 175.873 22.9973 176.619 22.848C177.387 22.6773 178.155 22.5493 178.923 22.464C179.585 22.336 180.214 22.2507 180.811 22.208C181.409 22.144 181.931 22.048 182.379 21.92C182.849 21.792 183.211 21.6 183.467 21.344C183.745 21.0667 183.883 20.6613 183.883 20.128C183.883 19.6587 183.766 19.2747 183.531 18.976C183.318 18.6773 183.041 18.4533 182.699 18.304C182.379 18.1333 182.017 18.0267 181.611 17.984C181.206 17.92 180.822 17.888 180.459 17.888C179.435 17.888 178.593 18.1013 177.931 18.528C177.27 18.9547 176.897 19.616 176.811 20.512H173.163C173.227 19.4453 173.483 18.56 173.931 17.856C174.379 17.152 174.945 16.5867 175.627 16.16C176.331 15.7333 177.121 15.4347 177.995 15.264C178.87 15.0933 179.766 15.008 180.683 15.008C181.494 15.008 182.294 15.0933 183.083 15.264C183.873 15.4347 184.577 15.712 185.195 16.096C185.835 16.48 186.347 16.9813 186.731 17.6C187.115 18.1973 187.307 18.9333 187.307 19.808V28.32ZM183.659 23.712C183.105 24.0747 182.422 24.2987 181.611 24.384C180.801 24.448 179.99 24.5547 179.179 24.704C178.795 24.768 178.422 24.864 178.059 24.992C177.697 25.0987 177.377 25.2587 177.099 25.472C176.822 25.664 176.598 25.9307 176.427 26.272C176.278 26.592 176.203 26.9867 176.203 27.456C176.203 27.8613 176.321 28.2027 176.555 28.48C176.79 28.7573 177.067 28.9813 177.387 29.152C177.729 29.3013 178.091 29.408 178.475 29.472C178.881 29.536 179.243 29.568 179.563 29.568C179.969 29.568 180.406 29.5147 180.875 29.408C181.345 29.3013 181.782 29.12 182.187 28.864C182.614 28.608 182.966 28.288 183.243 27.904C183.521 27.4987 183.659 27.008 183.659 26.432V23.712ZM191.329 9.152H194.977V12.608H191.329V9.152ZM191.329 15.456H194.977V32H191.329V15.456ZM210.61 26.688C210.716 27.7547 211.122 28.5013 211.826 28.928C212.53 29.3547 213.372 29.568 214.354 29.568C214.695 29.568 215.079 29.5467 215.506 29.504C215.954 29.44 216.37 29.3333 216.754 29.184C217.138 29.0347 217.447 28.8213 217.682 28.544C217.938 28.2453 218.055 27.8613 218.034 27.392C218.012 26.9227 217.842 26.5387 217.522 26.24C217.202 25.9413 216.786 25.7067 216.274 25.536C215.783 25.344 215.218 25.184 214.578 25.056C213.938 24.928 213.287 24.7893 212.626 24.64C211.943 24.4907 211.282 24.3093 210.641 24.096C210.023 23.8827 209.458 23.5947 208.946 23.232C208.455 22.8693 208.06 22.4107 207.762 21.856C207.463 21.28 207.314 20.576 207.314 19.744C207.314 18.848 207.527 18.1013 207.954 17.504C208.402 16.8853 208.956 16.3947 209.618 16.032C210.3 15.648 211.047 15.3813 211.858 15.232C212.69 15.0827 213.479 15.008 214.226 15.008C215.079 15.008 215.89 15.104 216.658 15.296C217.447 15.4667 218.151 15.7547 218.77 16.16C219.41 16.5653 219.932 17.0987 220.338 17.76C220.764 18.4 221.031 19.1787 221.138 20.096H217.33C217.159 19.2213 216.754 18.6347 216.114 18.336C215.495 18.0373 214.78 17.888 213.97 17.888C213.714 17.888 213.404 17.9093 213.042 17.952C212.7 17.9947 212.37 18.08 212.05 18.208C211.751 18.3147 211.495 18.4853 211.282 18.72C211.068 18.9333 210.962 19.2213 210.962 19.584C210.962 20.032 211.111 20.3947 211.41 20.672C211.73 20.9493 212.135 21.184 212.626 21.376C213.138 21.5467 213.714 21.696 214.354 21.824C214.994 21.952 215.655 22.0907 216.338 22.24C216.999 22.3893 217.65 22.5707 218.29 22.784C218.93 22.9973 219.495 23.2853 219.986 23.648C220.498 24.0107 220.903 24.4693 221.202 25.024C221.522 25.5787 221.682 26.2613 221.682 27.072C221.682 28.0533 221.458 28.8853 221.01 29.568C220.562 30.2507 219.975 30.8053 219.25 31.232C218.546 31.6587 217.756 31.968 216.882 32.16C216.007 32.352 215.143 32.448 214.29 32.448C213.244 32.448 212.274 32.3307 211.378 32.096C210.503 31.8613 209.735 31.5093 209.074 31.04C208.434 30.5493 207.922 29.952 207.538 29.248C207.175 28.5227 206.983 27.6693 206.962 26.688H210.61ZM222.787 15.456H225.539V10.496H229.187V15.456H232.483V18.176H229.187V27.008C229.187 27.392 229.198 27.7227 229.219 28C229.262 28.2773 229.337 28.512 229.443 28.704C229.571 28.896 229.753 29.0453 229.987 29.152C230.222 29.2373 230.542 29.28 230.947 29.28C231.203 29.28 231.459 29.28 231.715 29.28C231.971 29.2587 232.227 29.216 232.483 29.152V31.968C232.078 32.0107 231.683 32.0533 231.299 32.096C230.915 32.1387 230.521 32.16 230.115 32.16C229.155 32.16 228.377 32.0747 227.779 31.904C227.203 31.712 226.745 31.4453 226.403 31.104C226.083 30.7413 225.859 30.2933 225.731 29.76C225.625 29.2267 225.561 28.6187 225.539 27.936V18.176H222.787V15.456ZM249.635 32H246.052V29.696H245.988C245.54 30.528 244.868 31.2 243.972 31.712C243.097 32.2027 242.201 32.448 241.284 32.448C239.108 32.448 237.529 31.9147 236.548 30.848C235.588 29.76 235.108 28.128 235.108 25.952V15.456H238.756V25.6C238.756 27.0507 239.033 28.0747 239.588 28.672C240.142 29.2693 240.921 29.568 241.924 29.568C242.692 29.568 243.332 29.4507 243.844 29.216C244.356 28.9813 244.772 28.672 245.092 28.288C245.412 27.8827 245.636 27.4027 245.764 26.848C245.913 26.2933 245.988 25.696 245.988 25.056V15.456H249.635V32ZM269.067 32H265.611V29.76H265.547C265.056 30.72 264.341 31.4133 263.403 31.84C262.464 32.2453 261.472 32.448 260.427 32.448C259.125 32.448 257.984 32.224 257.003 31.776C256.043 31.3067 255.243 30.6773 254.603 29.888C253.963 29.0987 253.483 28.1707 253.163 27.104C252.843 26.016 252.683 24.8533 252.683 23.616C252.683 22.1227 252.885 20.832 253.291 19.744C253.696 18.656 254.229 17.76 254.891 17.056C255.573 16.352 256.341 15.84 257.195 15.52C258.069 15.1787 258.955 15.008 259.851 15.008C260.363 15.008 260.885 15.0613 261.419 15.168C261.952 15.2533 262.464 15.4027 262.955 15.616C263.445 15.8293 263.893 16.1067 264.299 16.448C264.725 16.768 265.077 17.152 265.355 17.6H265.419V9.152H269.067V32ZM256.331 23.904C256.331 24.608 256.416 25.3013 256.587 25.984C256.779 26.6667 257.056 27.2747 257.419 27.808C257.803 28.3413 258.283 28.768 258.859 29.088C259.435 29.408 260.117 29.568 260.907 29.568C261.717 29.568 262.411 29.3973 262.987 29.056C263.584 28.7147 264.064 28.2667 264.427 27.712C264.811 27.1573 265.088 26.5387 265.259 25.856C265.451 25.152 265.547 24.4373 265.547 23.712C265.547 21.8773 265.131 20.448 264.299 19.424C263.488 18.4 262.379 17.888 260.97 17.888C260.117 17.888 259.392 18.0693 258.795 18.432C258.219 18.7733 257.739 19.232 257.355 19.808C256.992 20.3627 256.725 21.0027 256.555 21.728C256.405 22.432 256.331 23.1573 256.331 23.904ZM273.141 9.152H276.789V12.608H273.141V9.152ZM273.141 15.456H276.789V32H273.141V15.456ZM288.348 32.448C287.025 32.448 285.841 32.2347 284.796 31.808C283.772 31.36 282.897 30.752 282.172 29.984C281.468 29.216 280.924 28.2987 280.54 27.232C280.177 26.1653 279.996 24.992 279.996 23.712C279.996 22.4533 280.177 21.2907 280.54 20.224C280.924 19.1573 281.468 18.24 282.172 17.472C282.897 16.704 283.772 16.1067 284.796 15.68C285.841 15.232 287.025 15.008 288.348 15.008C289.67 15.008 290.844 15.232 291.868 15.68C292.913 16.1067 293.788 16.704 294.492 17.472C295.217 18.24 295.761 19.1573 296.124 20.224C296.508 21.2907 296.7 22.4533 296.7 23.712C296.7 24.992 296.508 26.1653 296.124 27.232C295.761 28.2987 295.217 29.216 294.492 29.984C293.788 30.752 292.913 31.36 291.868 31.808C290.844 32.2347 289.67 32.448 288.348 32.448ZM288.348 29.568C289.158 29.568 289.862 29.3973 290.46 29.056C291.057 28.7147 291.548 28.2667 291.932 27.712C292.316 27.1573 292.593 26.5387 292.764 25.856C292.956 25.152 293.052 24.4373 293.052 23.712C293.052 23.008 292.956 22.304 292.764 21.6C292.593 20.896 292.316 20.2773 291.932 19.744C291.548 19.1893 291.057 18.7413 290.46 18.4C289.862 18.0587 289.158 17.888 288.348 17.888C287.537 17.888 286.833 18.0587 286.236 18.4C285.638 18.7413 285.148 19.1893 284.764 19.744C284.38 20.2773 284.092 20.896 283.9 21.6C283.729 22.304 283.644 23.008 283.644 23.712C283.644 24.4373 283.729 25.152 283.9 25.856C284.092 26.5387 284.38 27.1573 284.764 27.712C285.148 28.2667 285.638 28.7147 286.236 29.056C286.833 29.3973 287.537 29.568 288.348 29.568Z" fill="#525252"/>
</svg>
