<svg width="247" height="36" viewBox="0 0 247 36" fill="none" xmlns="http://www.w3.org/2000/svg">
<path d="M36 18C36 27.9411 27.9411 36 18 36C8.05887 36 0 27.9411 0 18C0 8.05887 8.05887 0 18 0C27.9411 0 36 8.05887 36 18Z" fill="#0022CC" fill-opacity="0.7"/>
<path d="M54 18C54 27.9411 45.9411 36 36 36C26.0589 36 18 27.9411 18 18C18 8.05887 26.0589 0 36 0C45.9411 0 54 8.05887 54 18Z" fill="#336600" fill-opacity="0.7"/>
<path d="M71.62 13.49H75.67V16.37H75.73C75.93 15.89 76.2 15.45 76.54 15.05C76.88 14.63 77.27 14.28 77.71 14C78.15 13.7 78.62 13.47 79.12 13.31C79.62 13.15 80.14 13.07 80.68 13.07C80.96 13.07 81.27 13.12 81.61 13.22V17.18C81.41 17.14 81.17 17.11 80.89 17.09C80.61 17.05 80.34 17.03 80.08 17.03C79.3 17.03 78.64 17.16 78.1 17.42C77.56 17.68 77.12 18.04 76.78 18.5C76.46 18.94 76.23 19.46 76.09 20.06C75.95 20.66 75.88 21.31 75.88 22.01V29H71.62V13.49ZM87.6602 11.09H83.4002V7.58H87.6602V11.09ZM83.4002 13.49H87.6602V29H83.4002V13.49ZM91.0145 13.49H95.0645V15.65H95.1545C95.6945 14.75 96.3945 14.1 97.2545 13.7C98.1145 13.28 98.9945 13.07 99.8945 13.07C101.035 13.07 101.965 13.23 102.685 13.55C103.425 13.85 104.005 14.28 104.425 14.84C104.845 15.38 105.135 16.05 105.295 16.85C105.475 17.63 105.565 18.5 105.565 19.46V29H101.305V20.24C101.305 18.96 101.105 18.01 100.705 17.39C100.305 16.75 99.5945 16.43 98.5745 16.43C97.4145 16.43 96.5745 16.78 96.0545 17.48C95.5345 18.16 95.2745 19.29 95.2745 20.87V29H91.0145V13.49ZM109.188 7.58H113.448V19.07L118.818 13.49H123.858L118.008 19.19L124.518 29H119.358L115.098 22.07L113.448 23.66V29H109.188V7.58ZM125.844 18.26C125.904 17.26 126.154 16.43 126.594 15.77C127.034 15.11 127.594 14.58 128.274 14.18C128.954 13.78 129.714 13.5 130.554 13.34C131.414 13.16 132.274 13.07 133.134 13.07C133.914 13.07 134.704 13.13 135.504 13.25C136.304 13.35 137.034 13.56 137.694 13.88C138.354 14.2 138.894 14.65 139.314 15.23C139.734 15.79 139.944 16.54 139.944 17.48V25.55C139.944 26.25 139.984 26.92 140.064 27.56C140.144 28.2 140.284 28.68 140.484 29H136.164C136.084 28.76 136.014 28.52 135.954 28.28C135.914 28.02 135.884 27.76 135.864 27.5C135.184 28.2 134.384 28.69 133.464 28.97C132.544 29.25 131.604 29.39 130.644 29.39C129.904 29.39 129.214 29.3 128.574 29.12C127.934 28.94 127.374 28.66 126.894 28.28C126.414 27.9 126.034 27.42 125.754 26.84C125.494 26.26 125.364 25.57 125.364 24.77C125.364 23.89 125.514 23.17 125.814 22.61C126.134 22.03 126.534 21.57 127.014 21.23C127.514 20.89 128.074 20.64 128.694 20.48C129.334 20.3 129.974 20.16 130.614 20.06C131.254 19.96 131.884 19.88 132.504 19.82C133.124 19.76 133.674 19.67 134.154 19.55C134.634 19.43 135.014 19.26 135.294 19.04C135.574 18.8 135.704 18.46 135.684 18.02C135.684 17.56 135.604 17.2 135.444 16.94C135.304 16.66 135.104 16.45 134.844 16.31C134.604 16.15 134.314 16.05 133.974 16.01C133.654 15.95 133.304 15.92 132.924 15.92C132.084 15.92 131.424 16.1 130.944 16.46C130.464 16.82 130.184 17.42 130.104 18.26H125.844ZM135.684 21.41C135.504 21.57 135.274 21.7 134.994 21.8C134.734 21.88 134.444 21.95 134.124 22.01C133.824 22.07 133.504 22.12 133.164 22.16C132.824 22.2 132.484 22.25 132.144 22.31C131.824 22.37 131.504 22.45 131.184 22.55C130.884 22.65 130.614 22.79 130.374 22.97C130.154 23.13 129.974 23.34 129.834 23.6C129.694 23.86 129.624 24.19 129.624 24.59C129.624 24.97 129.694 25.29 129.834 25.55C129.974 25.81 130.164 26.02 130.404 26.18C130.644 26.32 130.924 26.42 131.244 26.48C131.564 26.54 131.894 26.57 132.234 26.57C133.074 26.57 133.724 26.43 134.184 26.15C134.644 25.87 134.984 25.54 135.204 25.16C135.424 24.76 135.554 24.36 135.594 23.96C135.654 23.56 135.684 23.24 135.684 23V21.41ZM147.631 11.09H143.371V7.58H147.631V11.09ZM143.371 13.49H147.631V29H143.371V13.49ZM162.635 23.96C162.635 24.42 162.725 24.82 162.905 25.16C163.105 25.48 163.355 25.75 163.655 25.97C163.955 26.17 164.295 26.32 164.675 26.42C165.075 26.52 165.485 26.57 165.905 26.57C166.205 26.57 166.515 26.54 166.835 26.48C167.175 26.4 167.475 26.29 167.735 26.15C168.015 25.99 168.245 25.79 168.425 25.55C168.605 25.29 168.695 24.97 168.695 24.59C168.695 23.95 168.265 23.47 167.405 23.15C166.565 22.83 165.385 22.51 163.865 22.19C163.245 22.05 162.635 21.89 162.035 21.71C161.455 21.51 160.935 21.26 160.475 20.96C160.015 20.64 159.645 20.25 159.365 19.79C159.085 19.31 158.945 18.73 158.945 18.05C158.945 17.05 159.135 16.23 159.515 15.59C159.915 14.95 160.435 14.45 161.075 14.09C161.715 13.71 162.435 13.45 163.235 13.31C164.035 13.15 164.855 13.07 165.695 13.07C166.535 13.07 167.345 13.15 168.125 13.31C168.925 13.47 169.635 13.74 170.255 14.12C170.875 14.5 171.385 15.01 171.785 15.65C172.205 16.27 172.455 17.06 172.535 18.02H168.485C168.425 17.2 168.115 16.65 167.555 16.37C166.995 16.07 166.335 15.92 165.575 15.92C165.335 15.92 165.075 15.94 164.795 15.98C164.515 16 164.255 16.06 164.015 16.16C163.795 16.26 163.605 16.41 163.445 16.61C163.285 16.79 163.205 17.04 163.205 17.36C163.205 17.74 163.345 18.05 163.625 18.29C163.905 18.53 164.265 18.73 164.705 18.89C165.165 19.03 165.685 19.16 166.265 19.28C166.845 19.4 167.435 19.53 168.035 19.67C168.655 19.81 169.255 19.98 169.835 20.18C170.435 20.38 170.965 20.65 171.425 20.99C171.885 21.31 172.255 21.72 172.535 22.22C172.815 22.7 172.955 23.3 172.955 24.02C172.955 25.04 172.745 25.9 172.325 26.6C171.925 27.28 171.395 27.83 170.735 28.25C170.075 28.67 169.315 28.96 168.455 29.12C167.615 29.3 166.755 29.39 165.875 29.39C164.975 29.39 164.095 29.3 163.235 29.12C162.375 28.94 161.605 28.64 160.925 28.22C160.265 27.8 159.715 27.25 159.275 26.57C158.855 25.87 158.625 25 158.585 23.96H162.635ZM180.848 13.49H183.968V16.34H180.848V24.02C180.848 24.74 180.968 25.22 181.208 25.46C181.448 25.7 181.928 25.82 182.648 25.82C182.888 25.82 183.118 25.81 183.338 25.79C183.558 25.77 183.768 25.74 183.968 25.7V29C183.608 29.06 183.208 29.1 182.768 29.12C182.328 29.14 181.898 29.15 181.478 29.15C180.818 29.15 180.188 29.1 179.588 29C179.008 28.92 178.488 28.75 178.028 28.49C177.588 28.23 177.238 27.86 176.978 27.38C176.718 26.9 176.588 26.27 176.588 25.49V16.34H174.008V13.49H176.588V8.84H180.848V13.49ZM200.545 29H196.495V26.84H196.405C195.865 27.74 195.165 28.39 194.305 28.79C193.445 29.19 192.565 29.39 191.665 29.39C190.525 29.39 189.585 29.24 188.845 28.94C188.125 28.64 187.555 28.22 187.135 27.68C186.715 27.12 186.415 26.45 186.235 25.67C186.075 24.87 185.995 23.99 185.995 23.03V13.49H190.255V22.25C190.255 23.53 190.455 24.49 190.855 25.13C191.255 25.75 191.965 26.06 192.985 26.06C194.145 26.06 194.985 25.72 195.505 25.04C196.025 24.34 196.285 23.2 196.285 21.62V13.49H200.545V29ZM214.788 21.2C214.788 20.56 214.728 19.95 214.608 19.37C214.488 18.77 214.278 18.25 213.978 17.81C213.698 17.35 213.328 16.98 212.868 16.7C212.408 16.42 211.828 16.28 211.128 16.28C210.428 16.28 209.838 16.42 209.358 16.7C208.878 16.98 208.488 17.35 208.188 17.81C207.908 18.27 207.698 18.8 207.558 19.4C207.438 19.98 207.378 20.59 207.378 21.23C207.378 21.83 207.448 22.43 207.588 23.03C207.728 23.63 207.948 24.17 208.248 24.65C208.568 25.11 208.958 25.49 209.418 25.79C209.898 26.07 210.468 26.21 211.128 26.21C211.828 26.21 212.408 26.07 212.868 25.79C213.348 25.51 213.728 25.14 214.008 24.68C214.288 24.2 214.488 23.66 214.608 23.06C214.728 22.46 214.788 21.84 214.788 21.2ZM214.848 27.02H214.788C214.288 27.86 213.628 28.47 212.808 28.85C212.008 29.21 211.098 29.39 210.078 29.39C208.918 29.39 207.898 29.17 207.018 28.73C206.138 28.27 205.408 27.66 204.828 26.9C204.268 26.12 203.838 25.23 203.538 24.23C203.258 23.23 203.118 22.19 203.118 21.11C203.118 20.07 203.258 19.07 203.538 18.11C203.838 17.13 204.268 16.27 204.828 15.53C205.408 14.79 206.128 14.2 206.988 13.76C207.848 13.3 208.848 13.07 209.988 13.07C210.908 13.07 211.778 13.27 212.598 13.67C213.438 14.05 214.098 14.62 214.578 15.38H214.638V7.58H218.898V29H214.848V27.02ZM226.498 11.09H222.238V7.58H226.498V11.09ZM222.238 13.49H226.498V29H222.238V13.49ZM233.632 21.26C233.632 21.88 233.692 22.49 233.812 23.09C233.932 23.67 234.132 24.2 234.412 24.68C234.712 25.14 235.102 25.51 235.582 25.79C236.062 26.07 236.662 26.21 237.382 26.21C238.102 26.21 238.702 26.07 239.182 25.79C239.682 25.51 240.072 25.14 240.352 24.68C240.652 24.2 240.862 23.67 240.982 23.09C241.102 22.49 241.162 21.88 241.162 21.26C241.162 20.64 241.102 20.03 240.982 19.43C240.862 18.83 240.652 18.3 240.352 17.84C240.072 17.38 239.682 17.01 239.182 16.73C238.702 16.43 238.102 16.28 237.382 16.28C236.662 16.28 236.062 16.43 235.582 16.73C235.102 17.01 234.712 17.38 234.412 17.84C234.132 18.3 233.932 18.83 233.812 19.43C233.692 20.03 233.632 20.64 233.632 21.26ZM229.372 21.26C229.372 20.02 229.562 18.9 229.942 17.9C230.322 16.88 230.862 16.02 231.562 15.32C232.262 14.6 233.102 14.05 234.082 13.67C235.062 13.27 236.162 13.07 237.382 13.07C238.602 13.07 239.702 13.27 240.682 13.67C241.682 14.05 242.532 14.6 243.232 15.32C243.932 16.02 244.472 16.88 244.852 17.9C245.232 18.9 245.422 20.02 245.422 21.26C245.422 22.5 245.232 23.62 244.852 24.62C244.472 25.62 243.932 26.48 243.232 27.2C242.532 27.9 241.682 28.44 240.682 28.82C239.702 29.2 238.602 29.39 237.382 29.39C236.162 29.39 235.062 29.2 234.082 28.82C233.102 28.44 232.262 27.9 231.562 27.2C230.862 26.48 230.322 25.62 229.942 24.62C229.562 23.62 229.372 22.5 229.372 21.26Z" fill="black"/>
</svg>
