<svg width="102" height="40" viewBox="0 0 102 40" fill="none" xmlns="http://www.w3.org/2000/svg">
<path d="M2.55381 18.4384C3.30261 18.4384 6.31116 17.9983 7.72549 17.5282C8.32609 17.3286 9.38632 17.0621 10.1904 16.8167C10.9648 16.5804 11.4782 16.35 12.7859 15.7292C13.4567 15.4107 14.2735 15.1951 14.9431 14.861C15.7527 14.457 17.2048 14.0828 18.759 13.462C19.4836 13.1726 20.3572 12.7066 21.2266 12.4158C22.2782 12.0642 23.5124 11.6823 24.4903 11.4823C25.2289 11.3312 25.8227 11.0609 27.0652 10.6381C27.7079 10.4194 28.2663 10.2607 30.7905 9.12982C31.8408 8.65931 33.4973 8.08428 35.3034 7.68153C36.1182 7.49983 37.4545 7.36946 39.3818 7.25877C42.6988 7.06828 45.0558 7.32412 45.3216 7.50149C45.8359 7.84462 46.5628 7.99092 47.6953 8.08028C48.6992 8.15948 49.4487 8.83376 50.1182 9.12449C50.7299 9.39009 51.4047 9.72461 52.3373 9.99133C53.0701 10.2009 53.715 10.2581 55.1107 10.9449C56.3912 11.575 57.3125 11.5917 58.8854 11.681C60.6481 11.7811 62.7753 11.8157 63.3089 11.881C63.8427 11.9464 64.4621 12.0371 65.1516 12.2585C65.7371 12.4464 66.3728 12.6585 67.3468 12.8146C69.9069 13.2247 71.4332 13.8134 72.4551 14.2135C74.1982 14.8959 74.8548 15.059 75.8514 15.5018C78.507 16.6815 79.297 16.6594 80.8259 16.6827C81.6225 16.6949 82.3162 16.35 83.0717 16.1279C84.1023 15.825 84.7598 15.4164 85.404 15.2164C86.0028 15.0305 86.5798 14.4856 87.3799 14.0388C88.0064 13.689 88.8876 13.24 89.601 12.9273C90.3848 12.5837 91.2406 12.0851 92.066 11.5496C92.6333 11.1816 93.2871 10.7942 93.8867 10.3501C94.8356 9.64722 95.2857 9.10582 96.0405 8.32833C96.3812 7.97741 96.6194 7.68153 97.0831 7.54817C98.6011 7.11156 99.2829 7.85756 99.8165 8.0356C100.35 8.21364 100.75 8.347 100.884 8.50169C101.475 9.18487 99.6426 10.034 99.1543 10.4574C98.6183 10.9222 98.2649 11.3676 97.9765 11.9017C97.7054 12.4037 97.5108 12.9679 97.2656 13.6127C97.0427 14.1992 96.7114 14.7016 96.4882 15.2357C96.2712 15.7551 96.1331 16.302 95.9772 16.8801C95.768 17.6559 95.8213 18.5664 95.9759 19.2365C96.1124 19.8285 96.3543 20.3028 96.5974 20.8369C96.8338 21.3561 96.9752 21.9031 97.2856 22.4812C97.6654 23.1884 97.9052 24.4743 98.197 25.4592C98.4883 26.4425 98.3529 27.4562 98.4635 28.1937C98.5662 28.8787 98.6193 29.5046 98.7519 30.1494C98.8127 30.4453 98.8858 30.7062 98.8199 30.8623C98.3604 31.9494 95.339 30.6195 94.0712 30.1981C93.3675 29.9642 92.9026 29.5612 92.3972 29.1232L92.3811 29.1092C91.8865 28.6806 91.5603 28.131 90.8941 27.5096C90.1804 26.8438 89.5191 25.9999 88.8949 25.6185C88.3061 25.2588 87.6084 24.709 86.9409 24.1749C86.449 23.7813 85.7005 23.4634 83.9251 23.4167C82.9809 23.3919 82.0577 24.0822 81.4335 24.4383C80.7778 24.8123 79.9685 25.0611 79.4349 25.3498C78.9185 25.6292 78.3696 26.0373 77.836 26.306C77.268 26.592 76.6375 26.9281 75.95 27.3489C74.6076 28.1704 74.106 28.4831 73.4398 28.8172C72.8042 29.1359 70.9216 29.7687 69.3547 30.3061C68.5804 30.5717 67.889 30.7076 67.0889 30.8402C66.5027 30.9375 65.7146 31.1503 64.7799 31.263C63.9333 31.3651 63.3136 31.4624 60.878 31.5297C60.1584 31.5496 57.8694 31.6411 54.6057 31.6631C52.2149 31.6792 49.6379 31.8625 48.2382 31.9298C47.4615 31.9672 45.6487 32.0412 43.4509 32.1072C42.1732 32.1455 39.7063 32.8413 37.3126 32.5093C36.2214 32.3579 35.3333 32.1745 34.7777 32.0638C34.1419 31.9372 33.4254 31.9078 32.492 31.7971C31.9206 31.7293 31.4681 31.7304 30.4328 31.6637C25.9262 31.3735 25.0313 31.5077 24.032 31.397C22.3293 31.2084 20.5491 31.1076 19.6111 30.9969C18.9014 30.9132 18.1908 30.8409 17.3027 30.6862C16.2128 30.4963 15.526 30.1314 14.9251 29.9081C14.1554 29.622 13.3489 29.1979 12.3729 28.8638C11.7525 28.6515 10.8653 28.1337 10.1504 27.6636C9.40707 27.1747 6.92139 26.4027 5.73157 25.7745C5.06277 25.4215 4.42182 25.1971 3.22467 24.7523C2.54886 24.5013 1.93558 24.2182 1.33467 23.9075C1.17507 23.825 1.0029 23.7301 1.00024 23.6628C0.978785 23.1206 2.41524 23.8155 3.10675 24.0389C3.73355 24.2413 4.28325 24.2609 4.81688 24.3283C5.45249 24.4085 6.23654 24.661 8.91665 24.6843C9.61592 24.6904 9.88064 24.529 10.0805 24.3963C10.1735 24.3345 10.1484 24.1756 10.0825 24.0635C9.77786 23.5461 8.82139 23.242 8.15186 22.8406C7.60168 22.5108 7.08661 22.1298 6.55299 21.7737C6.03875 21.4306 5.48774 21.1083 4.93213 20.7735C4.1739 20.3167 3.62239 19.8627 3.08876 19.4846C2.95486 19.3732 2.82295 19.2412 2.73301 19.1072C2.64308 18.9732 2.59911 18.8411 2.42057 18.7051M48.9211 7.36946C49.494 7.0614 51.7058 5.20369 52.805 4.2595C53.4614 3.69564 53.9362 2.92856 54.7363 1.9937C55.0034 1.68166 55.3152 1.45893 55.5811 1.1702C55.7901 0.943134 56.3785 0.968159 57.066 1.10019C57.6677 1.21572 57.8468 1.90035 58.2445 2.47447C59.0199 3.59375 59.7974 5.62377 60.5742 7.57817C61.1338 9.14583 61.5762 9.8553 62.1538 10.5228C62.3316 10.7448 62.5515 11.0529 62.9112 11.5036M73.8368 12.9706C74.2779 12.8826 75.2545 12.5278 77.6248 11.773C78.6412 11.4494 80.704 11.5036 81.9624 11.6583C82.2676 11.6959 82.4961 12.0357 82.6959 12.4338C83.2353 13.5082 82.3215 14.1682 81.9658 14.7023L81.4328 15.5025C81.3435 15.6365 81.2556 15.7685 81.0318 16.0379M64.3768 32.5746C65.6972 32.5746 68.3714 32.6626 69.1481 32.8407C69.9369 33.0214 70.6364 33.3294 71.1701 33.5075C71.7434 33.6987 72.7203 33.7748 73.5011 33.5095C74.3738 33.2128 74.988 33.02 75.5889 32.82C76.2777 32.5907 76.7654 32.1318 77.2991 31.6211C77.8843 31.0609 78.1431 30.4435 78.4103 29.8874C78.7392 29.2027 78.9879 28.7098 79.1438 28.1537C79.2104 27.5082 79.2997 26.9761 79.3216 26.51C79.3436 26.308 79.3876 26.176 79.4329 26.0399M48.5214 32.9747C49.0064 32.9747 50.1602 33.1507 51.1155 33.6835C52.2662 34.3252 53.2221 34.8817 53.9822 35.2631C54.666 35.6063 56.2386 36.6128 57.6223 37.4623C58.3066 37.8824 58.9114 38.3518 59.445 38.5752C59.9781 38.7983 60.3783 39.0199 60.5562 38.9986C61.2172 38.9193 59.5856 36.6768 59.2478 34.2936C58.8261 33.3761 58.3837 33.02 57.7175 32.5986C57.539 32.4866 57.3631 32.3986 56.9154 32.1745M16.9437 30.3075C17.4739 30.2635 18.4493 30.1741 19.4052 29.82C20.007 29.5972 20.5385 29.3313 21.3819 28.5104C21.9383 27.9689 22.3159 27.2882 22.561 26.7087C22.8129 26.1134 23.1153 25.4211 23.2279 24.3989C23.3691 23.117 23.0753 21.0656 22.5863 19.9107C21.8641 18.205 21.2979 17.6409 20.7876 17.3282C20.0885 16.8997 19.302 16.7047 18.5019 16.594C17.0782 16.5273 16.5026 16.438 15.9703 16.416C15.7458 16.394 15.6139 16.35 15.2115 16.3046M22.9394 27.7736C23.6003 27.9937 25.2871 28.7925 26.1125 29.3279C26.6304 29.6639 27.2004 29.862 27.8 30.0181C28.6397 30.2366 29.199 29.8194 29.8206 29.4866C30.8634 28.9284 31.8611 28.5311 32.995 27.9757C33.6915 27.6345 34.2621 27.5522 34.7957 27.2635C35.0492 27.1264 35.3293 27.0188 35.5952 26.8634C35.8417 26.7193 34.3541 26.707 31.7578 26.6853L31.6846 26.6847C29.649 26.6678 28.0505 26.4854 27.3397 26.3293C26.1385 26.2626 25.6069 26.1733 24.8747 26.0626C24.6302 26.0399 24.3224 26.0399 23.7389 25.9066M12.3949 19.3873C12.1305 19.3873 11.6291 19.4039 11.4709 19.4828C11.1746 19.6306 11.0378 19.8286 10.9415 19.9373C10.8567 20.0329 10.8454 20.6326 10.8743 20.9921C10.8862 21.139 11.0283 21.2545 11.1448 21.4296C11.2432 21.5776 11.3777 21.6962 11.5196 21.8093C11.6467 21.9105 11.7946 21.9554 11.9525 22.0178C12.2546 22.1372 12.4359 22.1055 12.7674 22.081C13.3765 22.0359 13.7942 21.9139 13.8605 21.9056C14.0517 21.8818 14.1603 21.7643 14.2689 21.6309C14.3857 21.4876 14.3858 21.3342 14.386 20.9762L14.386 20.9649C14.3863 20.5569 14.2278 20.3469 14.1447 20.2008C14.0731 20.0749 13.9034 20.0212 13.7202 19.9214C13.5163 19.8103 13.3036 19.7546 13.112 19.696C13.0452 19.6875 12.962 19.6628 12.8621 19.6211C12.82 19.6042 12.7953 19.596 12.7448 19.5875M90.8538 21.1639C90.9033 21.1639 90.9783 21.1639 91.9384 21.3559C92.8509 21.5385 94.619 21.9321 95.5804 22.1485C96.644 22.388 96.9285 22.49 97.2407 22.5774C97.4292 22.6401 97.5549 22.678 97.6672 22.703C97.7177 22.7156 97.7548 22.728 97.718 22.6657M95.9176 17.6724C95.9052 17.6724 95.8928 17.6724 95.3542 17.6662C94.8156 17.66 93.751 17.6476 93.0355 17.6164C92.32 17.5853 91.9858 17.5357 91.5042 17.4296C91.0226 17.3236 90.4037 17.1625 90.0415 17.0733C89.6794 16.9842 89.5927 16.9718 89.5171 16.9654C89.4416 16.959 89.3797 16.959 89.3159 16.959M87.7799 14.3697C87.5942 14.631 86.9202 15.2302 85.7589 16.6538C85.258 17.2679 85.1546 17.7474 85.0984 18.5482C85.0792 20.5012 85.1164 21.9518 85.1726 22.3815C85.1918 22.6625 85.1918 23.0714 85.1918 23.4926M21.4841 16.8169H22.5307C23.5287 16.8169 25.4997 16.8169 26.6853 16.8534C28.2149 16.9005 28.806 17.1114 29.3085 17.2951C29.5732 17.3919 29.8353 17.552 30.6423 17.8708C31.4494 18.1896 32.7877 18.6767 33.5744 18.952C35.1165 19.4916 36.1308 19.5476 37.0735 19.169C38.2939 18.6788 39.1539 18.0723 39.5341 17.9129C40.6917 17.4274 42.0296 16.597 42.4112 16.387C42.7255 16.214 43.379 16.0553 43.9836 15.9929C44.586 15.9308 45.2725 16.1261 45.7658 16.4468C46.4014 16.86 47.1911 17.0132 47.5601 17.0996C47.6803 17.1277 47.8532 17.1121 49.2184 17.039C50.5836 16.966 53.1385 16.8198 54.6859 16.7689C56.6944 16.7028 57.3908 16.8656 57.9781 16.9759C59.5171 17.2651 59.9723 17.2346 60.6348 17.2719C61.0208 17.2936 61.2995 17.5785 61.9982 18.1918C62.7785 18.8768 63.6797 18.907 65.4361 18.9206C66.1668 18.687 66.7043 18.1985 67.0638 17.7774C67.1253 17.7033 67.1983 17.6302 67.2735 17.5549M55.3285 24.0495C55.7185 23.8539 56.8474 23.5336 58.5702 23.4351C59.8047 23.3645 61.7773 23.434 63.985 23.6292C66.1926 23.8244 68.5772 24.1897 69.8908 24.3779C71.3715 24.5901 71.6962 24.5905 72.1121 24.6274C72.7688 24.6856 73.3914 24.5912 73.9422 24.4931C75.3436 24.2433 76.3371 24.2473 77.0656 24.0381C77.8899 23.755 78.7217 23.217 79.4502 22.551C79.5622 22.4266 79.6109 22.3535 79.7348 22.2044M31.1088 10.1929C31.2142 10.1929 31.5848 10.1929 32.2222 10.2721C32.8595 10.5095 33.5017 10.7781 34.06 11.0171C34.302 11.1506 34.4601 11.3089 34.7828 11.472M33.6646 14.9895C33.9825 15.0951 34.7253 15.7314 35.4194 16.3997C35.5799 16.534 35.7381 16.6396 35.8986 16.7467L36.3802 17.0681M42.2907 9.39349C42.3961 9.39349 42.6086 9.49901 42.9273 9.71166C43.246 9.92431 43.8306 10.2441 44.5487 10.6166C44.845 10.7781 45.0031 10.8836 45.4855 11.3121M55.2298 13.3907C55.3352 13.3907 56.3384 13.3907 57.8552 13.417C58.5812 13.4962 59.0077 13.6033 59.4861 13.7096C59.701 13.7632 59.8591 13.816 60.0221 13.8703M70.565 16.2686C71.2519 16.4269 72.9548 16.8538 74.0226 17.0673C74.2375 17.1208 74.3956 17.1736 74.5562 17.2272C74.7167 17.2807 74.8749 17.3335 75.3573 17.3878" stroke="#525252" stroke-width="2" stroke-linecap="round"/>
</svg>
