<svg width="306" height="40" viewBox="0 0 306 40" fill="none" xmlns="http://www.w3.org/2000/svg">
<path d="M2.55381 18.4384C3.30261 18.4384 6.31116 17.9983 7.72549 17.5282C8.32609 17.3286 9.38632 17.0621 10.1904 16.8167C10.9648 16.5804 11.4782 16.35 12.7859 15.7292C13.4567 15.4107 14.2735 15.1951 14.9431 14.861C15.7527 14.457 17.2048 14.0828 18.759 13.462C19.4836 13.1726 20.3572 12.7066 21.2266 12.4158C22.2782 12.0642 23.5124 11.6823 24.4903 11.4823C25.2289 11.3312 25.8227 11.0609 27.0652 10.6381C27.7079 10.4194 28.2663 10.2607 30.7905 9.12982C31.8408 8.65931 33.4973 8.08428 35.3034 7.68153C36.1182 7.49983 37.4545 7.36946 39.3818 7.25877C42.6988 7.06828 45.0558 7.32412 45.3216 7.50149C45.8359 7.84462 46.5628 7.99092 47.6953 8.08028C48.6992 8.15948 49.4487 8.83376 50.1182 9.12449C50.7299 9.39009 51.4047 9.72461 52.3373 9.99133C53.0701 10.2009 53.715 10.2581 55.1107 10.9449C56.3912 11.575 57.3125 11.5917 58.8854 11.681C60.6481 11.7811 62.7753 11.8157 63.3089 11.881C63.8427 11.9464 64.4621 12.0371 65.1516 12.2585C65.7371 12.4464 66.3728 12.6585 67.3468 12.8146C69.9069 13.2247 71.4332 13.8134 72.4551 14.2135C74.1982 14.8959 74.8548 15.059 75.8514 15.5018C78.507 16.6815 79.297 16.6594 80.8259 16.6827C81.6225 16.6949 82.3162 16.35 83.0717 16.1279C84.1023 15.825 84.7598 15.4164 85.404 15.2164C86.0028 15.0305 86.5798 14.4856 87.3799 14.0388C88.0064 13.689 88.8876 13.24 89.601 12.9273C90.3848 12.5837 91.2406 12.0851 92.066 11.5496C92.6333 11.1816 93.2871 10.7942 93.8867 10.3501C94.8356 9.64722 95.2857 9.10582 96.0405 8.32833C96.3812 7.97741 96.6194 7.68153 97.0831 7.54817C98.6011 7.11156 99.2829 7.85756 99.8165 8.0356C100.35 8.21364 100.75 8.347 100.884 8.50169C101.475 9.18487 99.6426 10.034 99.1543 10.4574C98.6183 10.9222 98.2649 11.3676 97.9765 11.9017C97.7054 12.4037 97.5108 12.9679 97.2656 13.6127C97.0427 14.1992 96.7114 14.7016 96.4882 15.2357C96.2712 15.7551 96.1331 16.302 95.9772 16.8801C95.768 17.6559 95.8213 18.5664 95.9759 19.2365C96.1124 19.8285 96.3543 20.3028 96.5974 20.8369C96.8338 21.3561 96.9752 21.9031 97.2856 22.4812C97.6654 23.1884 97.9052 24.4743 98.197 25.4592C98.4883 26.4425 98.3529 27.4562 98.4635 28.1937C98.5662 28.8787 98.6193 29.5046 98.7519 30.1494C98.8127 30.4453 98.8858 30.7062 98.8199 30.8623C98.3604 31.9494 95.339 30.6195 94.0712 30.1981C93.3675 29.9642 92.9026 29.5612 92.3972 29.1232L92.3811 29.1092C91.8865 28.6806 91.5603 28.131 90.8941 27.5096C90.1804 26.8438 89.5191 25.9999 88.8949 25.6185C88.3061 25.2588 87.6084 24.709 86.9409 24.1749C86.449 23.7813 85.7005 23.4634 83.9251 23.4167C82.9809 23.3919 82.0577 24.0822 81.4335 24.4383C80.7778 24.8123 79.9685 25.0611 79.4349 25.3498C78.9185 25.6292 78.3696 26.0373 77.836 26.306C77.268 26.592 76.6375 26.9281 75.95 27.3489C74.6076 28.1704 74.106 28.4831 73.4398 28.8172C72.8042 29.1359 70.9216 29.7687 69.3547 30.3061C68.5804 30.5717 67.889 30.7076 67.0889 30.8402C66.5027 30.9375 65.7146 31.1503 64.7799 31.263C63.9333 31.3651 63.3136 31.4624 60.878 31.5297C60.1584 31.5496 57.8694 31.6411 54.6057 31.6631C52.2149 31.6792 49.6379 31.8625 48.2382 31.9298C47.4615 31.9672 45.6487 32.0412 43.4509 32.1072C42.1732 32.1455 39.7063 32.8413 37.3126 32.5093C36.2214 32.3579 35.3333 32.1745 34.7777 32.0638C34.1419 31.9372 33.4254 31.9078 32.492 31.7971C31.9206 31.7293 31.4681 31.7304 30.4328 31.6637C25.9262 31.3735 25.0313 31.5077 24.032 31.397C22.3293 31.2084 20.5491 31.1076 19.6111 30.9969C18.9014 30.9132 18.1908 30.8409 17.3027 30.6862C16.2128 30.4963 15.526 30.1314 14.9251 29.9081C14.1554 29.622 13.3489 29.1979 12.3729 28.8638C11.7525 28.6515 10.8653 28.1337 10.1504 27.6636C9.40707 27.1747 6.92139 26.4027 5.73157 25.7745C5.06277 25.4215 4.42182 25.1971 3.22467 24.7523C2.54886 24.5013 1.93558 24.2182 1.33467 23.9075C1.17507 23.825 1.0029 23.7301 1.00024 23.6628C0.978785 23.1206 2.41524 23.8155 3.10675 24.0389C3.73355 24.2413 4.28325 24.2609 4.81688 24.3283C5.45249 24.4085 6.23654 24.661 8.91665 24.6843C9.61592 24.6904 9.88064 24.529 10.0805 24.3963C10.1735 24.3345 10.1484 24.1756 10.0825 24.0635C9.77786 23.5461 8.82139 23.242 8.15186 22.8406C7.60168 22.5108 7.08661 22.1298 6.55299 21.7737C6.03875 21.4306 5.48774 21.1083 4.93213 20.7735C4.1739 20.3167 3.62239 19.8627 3.08876 19.4846C2.95486 19.3732 2.82295 19.2412 2.73301 19.1072C2.64308 18.9732 2.59911 18.8411 2.42057 18.7051M48.9211 7.36946C49.494 7.0614 51.7058 5.20369 52.805 4.2595C53.4614 3.69564 53.9362 2.92856 54.7363 1.9937C55.0034 1.68166 55.3152 1.45893 55.5811 1.1702C55.7901 0.943134 56.3785 0.968159 57.066 1.10019C57.6677 1.21572 57.8468 1.90035 58.2445 2.47447C59.0199 3.59375 59.7974 5.62377 60.5742 7.57817C61.1338 9.14583 61.5762 9.8553 62.1538 10.5228C62.3316 10.7448 62.5515 11.0529 62.9112 11.5036M73.8368 12.9706C74.2779 12.8826 75.2545 12.5278 77.6248 11.773C78.6412 11.4494 80.704 11.5036 81.9624 11.6583C82.2676 11.6959 82.4961 12.0357 82.6959 12.4338C83.2353 13.5082 82.3215 14.1682 81.9658 14.7023L81.4328 15.5025C81.3435 15.6365 81.2556 15.7685 81.0318 16.0379M64.3768 32.5746C65.6972 32.5746 68.3714 32.6626 69.1481 32.8407C69.9369 33.0214 70.6364 33.3294 71.1701 33.5075C71.7434 33.6987 72.7203 33.7748 73.5011 33.5095C74.3738 33.2128 74.988 33.02 75.5889 32.82C76.2777 32.5907 76.7654 32.1318 77.2991 31.6211C77.8843 31.0609 78.1431 30.4435 78.4103 29.8874C78.7392 29.2027 78.9879 28.7098 79.1438 28.1537C79.2104 27.5082 79.2997 26.9761 79.3216 26.51C79.3436 26.308 79.3876 26.176 79.4329 26.0399M48.5214 32.9747C49.0064 32.9747 50.1602 33.1507 51.1155 33.6835C52.2662 34.3252 53.2221 34.8817 53.9822 35.2631C54.666 35.6063 56.2386 36.6128 57.6223 37.4623C58.3066 37.8824 58.9114 38.3518 59.445 38.5752C59.9781 38.7983 60.3783 39.0199 60.5562 38.9986C61.2172 38.9193 59.5856 36.6768 59.2478 34.2936C58.8261 33.3761 58.3837 33.02 57.7175 32.5986C57.539 32.4866 57.3631 32.3986 56.9154 32.1745M16.9437 30.3075C17.4739 30.2635 18.4493 30.1741 19.4052 29.82C20.007 29.5972 20.5385 29.3313 21.3819 28.5104C21.9383 27.9689 22.3159 27.2882 22.561 26.7087C22.8129 26.1134 23.1153 25.4211 23.2279 24.3989C23.3691 23.117 23.0753 21.0656 22.5863 19.9107C21.8641 18.205 21.2979 17.6409 20.7876 17.3282C20.0885 16.8997 19.302 16.7047 18.5019 16.594C17.0782 16.5273 16.5026 16.438 15.9703 16.416C15.7458 16.394 15.6139 16.35 15.2115 16.3046M22.9394 27.7736C23.6003 27.9937 25.2871 28.7925 26.1125 29.3279C26.6304 29.6639 27.2004 29.862 27.8 30.0181C28.6397 30.2366 29.199 29.8194 29.8206 29.4866C30.8634 28.9284 31.8611 28.5311 32.995 27.9757C33.6915 27.6345 34.2621 27.5522 34.7957 27.2635C35.0492 27.1264 35.3293 27.0188 35.5952 26.8634C35.8417 26.7193 34.3541 26.707 31.7578 26.6853L31.6846 26.6847C29.649 26.6678 28.0505 26.4854 27.3397 26.3293C26.1385 26.2626 25.6069 26.1733 24.8747 26.0626C24.6302 26.0399 24.3224 26.0399 23.7389 25.9066M12.3949 19.3873C12.1305 19.3873 11.6291 19.4039 11.4709 19.4828C11.1746 19.6306 11.0378 19.8286 10.9415 19.9373C10.8567 20.0329 10.8454 20.6326 10.8743 20.9921C10.8862 21.139 11.0283 21.2545 11.1448 21.4296C11.2432 21.5776 11.3777 21.6962 11.5196 21.8093C11.6467 21.9105 11.7946 21.9554 11.9525 22.0178C12.2546 22.1372 12.4359 22.1055 12.7674 22.081C13.3765 22.0359 13.7942 21.9139 13.8605 21.9056C14.0517 21.8818 14.1603 21.7643 14.2689 21.6309C14.3857 21.4876 14.3858 21.3342 14.386 20.9762L14.386 20.9649C14.3863 20.5569 14.2278 20.3469 14.1447 20.2008C14.0731 20.0749 13.9034 20.0212 13.7202 19.9214C13.5163 19.8103 13.3036 19.7546 13.112 19.696C13.0452 19.6875 12.962 19.6628 12.8621 19.6211C12.82 19.6042 12.7953 19.596 12.7448 19.5875M90.8538 21.1639C90.9033 21.1639 90.9783 21.1639 91.9384 21.3559C92.8509 21.5385 94.619 21.9321 95.5804 22.1485C96.644 22.388 96.9285 22.49 97.2407 22.5774C97.4292 22.6401 97.5549 22.678 97.6672 22.703C97.7177 22.7156 97.7548 22.728 97.718 22.6657M95.9176 17.6724C95.9052 17.6724 95.8928 17.6724 95.3542 17.6662C94.8156 17.66 93.751 17.6476 93.0355 17.6164C92.32 17.5853 91.9858 17.5357 91.5042 17.4296C91.0226 17.3236 90.4037 17.1625 90.0415 17.0733C89.6794 16.9842 89.5927 16.9718 89.5171 16.9654C89.4416 16.959 89.3797 16.959 89.3159 16.959M87.7799 14.3697C87.5942 14.631 86.9202 15.2302 85.7589 16.6538C85.258 17.2679 85.1546 17.7474 85.0984 18.5482C85.0792 20.5012 85.1164 21.9518 85.1726 22.3815C85.1918 22.6625 85.1918 23.0714 85.1918 23.4926M21.4841 16.8169H22.5307C23.5287 16.8169 25.4997 16.8169 26.6853 16.8534C28.2149 16.9005 28.806 17.1114 29.3085 17.2951C29.5732 17.3919 29.8353 17.552 30.6423 17.8708C31.4494 18.1896 32.7877 18.6767 33.5744 18.952C35.1165 19.4916 36.1308 19.5476 37.0735 19.169C38.2939 18.6788 39.1539 18.0723 39.5341 17.9129C40.6917 17.4274 42.0296 16.597 42.4112 16.387C42.7255 16.214 43.379 16.0553 43.9836 15.9929C44.586 15.9308 45.2725 16.1261 45.7658 16.4468C46.4014 16.86 47.1911 17.0132 47.5601 17.0996C47.6803 17.1277 47.8532 17.1121 49.2184 17.039C50.5836 16.966 53.1385 16.8198 54.6859 16.7689C56.6944 16.7028 57.3908 16.8656 57.9781 16.9759C59.5171 17.2651 59.9723 17.2346 60.6348 17.2719C61.0208 17.2936 61.2995 17.5785 61.9982 18.1918C62.7785 18.8768 63.6797 18.907 65.4361 18.9206C66.1668 18.687 66.7043 18.1985 67.0638 17.7774C67.1253 17.7033 67.1983 17.6302 67.2735 17.5549M55.3285 24.0495C55.7185 23.8539 56.8474 23.5336 58.5702 23.4351C59.8047 23.3645 61.7773 23.434 63.985 23.6292C66.1926 23.8244 68.5772 24.1897 69.8908 24.3779C71.3715 24.5901 71.6962 24.5905 72.1121 24.6274C72.7688 24.6856 73.3914 24.5912 73.9422 24.4931C75.3436 24.2433 76.3371 24.2473 77.0656 24.0381C77.8899 23.755 78.7217 23.217 79.4502 22.551C79.5622 22.4266 79.6109 22.3535 79.7348 22.2044M31.1088 10.1929C31.2142 10.1929 31.5848 10.1929 32.2222 10.2721C32.8595 10.5095 33.5017 10.7781 34.06 11.0171C34.302 11.1506 34.4601 11.3089 34.7828 11.472M33.6646 14.9895C33.9825 15.0951 34.7253 15.7314 35.4194 16.3997C35.5799 16.534 35.7381 16.6396 35.8986 16.7467L36.3802 17.0681M42.2907 9.39349C42.3961 9.39349 42.6086 9.49901 42.9273 9.71166C43.246 9.92431 43.8306 10.2441 44.5487 10.6166C44.845 10.7781 45.0031 10.8836 45.4855 11.3121M55.2298 13.3907C55.3352 13.3907 56.3384 13.3907 57.8552 13.417C58.5812 13.4962 59.0077 13.6033 59.4861 13.7096C59.701 13.7632 59.8591 13.816 60.0221 13.8703M70.565 16.2686C71.2519 16.4269 72.9548 16.8538 74.0226 17.0673C74.2375 17.1208 74.3956 17.1736 74.5562 17.2272C74.7167 17.2807 74.8749 17.3335 75.3573 17.3878" stroke="black" stroke-width="2" stroke-linecap="round"/>
<path d="M118.728 15.456H123.048V18.528H123.112C123.325 18.016 123.613 17.5467 123.976 17.12C124.339 16.672 124.755 16.2987 125.224 16C125.693 15.68 126.195 15.4347 126.728 15.264C127.261 15.0933 127.816 15.008 128.392 15.008C128.691 15.008 129.021 15.0613 129.384 15.168V19.392C129.171 19.3493 128.915 19.3173 128.616 19.296C128.317 19.2533 128.029 19.232 127.752 19.232C126.92 19.232 126.216 19.3707 125.64 19.648C125.064 19.9253 124.595 20.3093 124.232 20.8C123.891 21.2693 123.645 21.824 123.496 22.464C123.347 23.104 123.272 23.7973 123.272 24.544V32H118.728V15.456ZM135.838 12.896H131.294V9.152H135.838V12.896ZM131.294 15.456H135.838V32H131.294V15.456ZM139.416 15.456H143.736V17.76H143.832C144.408 16.8 145.154 16.1067 146.072 15.68C146.989 15.232 147.928 15.008 148.888 15.008C150.104 15.008 151.096 15.1787 151.864 15.52C152.653 15.84 153.272 16.2987 153.72 16.896C154.168 17.472 154.477 18.1867 154.648 19.04C154.84 19.872 154.936 20.8 154.936 21.824V32H150.392V22.656C150.392 21.2907 150.178 20.2773 149.752 19.616C149.325 18.9333 148.568 18.592 147.48 18.592C146.242 18.592 145.346 18.9653 144.792 19.712C144.237 20.4373 143.96 21.6427 143.96 23.328V32H139.416V15.456ZM158.8 9.152H163.344V21.408L169.072 15.456H174.448L168.208 21.536L175.152 32H169.648L165.104 24.608L163.344 26.304V32H158.8V9.152ZM176.567 20.544C176.631 19.4773 176.898 18.592 177.367 17.888C177.837 17.184 178.434 16.6187 179.159 16.192C179.885 15.7653 180.695 15.4667 181.591 15.296C182.509 15.104 183.426 15.008 184.343 15.008C185.175 15.008 186.018 15.072 186.871 15.2C187.725 15.3067 188.503 15.5307 189.207 15.872C189.911 16.2133 190.487 16.6933 190.935 17.312C191.383 17.9093 191.607 18.7093 191.607 19.712V28.32C191.607 29.0667 191.65 29.7813 191.735 30.464C191.821 31.1467 191.97 31.6587 192.183 32H187.575C187.49 31.744 187.415 31.488 187.351 31.232C187.309 30.9547 187.277 30.6773 187.255 30.4C186.53 31.1467 185.677 31.6693 184.695 31.968C183.714 32.2667 182.711 32.416 181.687 32.416C180.898 32.416 180.162 32.32 179.479 32.128C178.797 31.936 178.199 31.6373 177.687 31.232C177.175 30.8267 176.77 30.3147 176.471 29.696C176.194 29.0773 176.055 28.3413 176.055 27.488C176.055 26.5493 176.215 25.7813 176.535 25.184C176.877 24.5653 177.303 24.0747 177.815 23.712C178.349 23.3493 178.946 23.0827 179.607 22.912C180.29 22.72 180.973 22.5707 181.655 22.464C182.338 22.3573 183.01 22.272 183.671 22.208C184.333 22.144 184.919 22.048 185.431 21.92C185.943 21.792 186.349 21.6107 186.647 21.376C186.946 21.12 187.085 20.7573 187.063 20.288C187.063 19.7973 186.978 19.4133 186.807 19.136C186.658 18.8373 186.445 18.6133 186.167 18.464C185.911 18.2933 185.602 18.1867 185.239 18.144C184.898 18.08 184.525 18.048 184.119 18.048C183.223 18.048 182.519 18.24 182.007 18.624C181.495 19.008 181.197 19.648 181.111 20.544H176.567ZM187.063 23.904C186.871 24.0747 186.626 24.2133 186.327 24.32C186.05 24.4053 185.741 24.48 185.399 24.544C185.079 24.608 184.738 24.6613 184.375 24.704C184.013 24.7467 183.65 24.8 183.287 24.864C182.946 24.928 182.605 25.0133 182.263 25.12C181.943 25.2267 181.655 25.376 181.399 25.568C181.165 25.7387 180.973 25.9627 180.823 26.24C180.674 26.5173 180.599 26.8693 180.599 27.296C180.599 27.7013 180.674 28.0427 180.823 28.32C180.973 28.5973 181.175 28.8213 181.431 28.992C181.687 29.1413 181.986 29.248 182.327 29.312C182.669 29.376 183.021 29.408 183.383 29.408C184.279 29.408 184.973 29.2587 185.463 28.96C185.954 28.6613 186.317 28.3093 186.551 27.904C186.786 27.4773 186.925 27.0507 186.967 26.624C187.031 26.1973 187.063 25.856 187.063 25.6V23.904ZM199.806 12.896H195.262V9.152H199.806V12.896ZM195.262 15.456H199.806V32H195.262V15.456ZM215.811 26.624C215.811 27.1147 215.907 27.5413 216.099 27.904C216.312 28.2453 216.579 28.5333 216.899 28.768C217.219 28.9813 217.581 29.1413 217.987 29.248C218.413 29.3547 218.851 29.408 219.299 29.408C219.619 29.408 219.949 29.376 220.291 29.312C220.653 29.2267 220.973 29.1093 221.251 28.96C221.549 28.7893 221.795 28.576 221.987 28.32C222.179 28.0427 222.275 27.7013 222.275 27.296C222.275 26.6133 221.816 26.1013 220.899 25.76C220.003 25.4187 218.744 25.0773 217.123 24.736C216.461 24.5867 215.811 24.416 215.171 24.224C214.552 24.0107 213.997 23.744 213.507 23.424C213.016 23.0827 212.621 22.6667 212.323 22.176C212.024 21.664 211.875 21.0453 211.875 20.32C211.875 19.2533 212.077 18.3787 212.483 17.696C212.909 17.0133 213.464 16.48 214.147 16.096C214.829 15.6907 215.597 15.4133 216.451 15.264C217.304 15.0933 218.179 15.008 219.075 15.008C219.971 15.008 220.835 15.0933 221.667 15.264C222.52 15.4347 223.277 15.7227 223.939 16.128C224.6 16.5333 225.144 17.0773 225.571 17.76C226.019 18.4213 226.285 19.264 226.371 20.288H222.051C221.987 19.4133 221.656 18.8267 221.059 18.528C220.461 18.208 219.757 18.048 218.947 18.048C218.691 18.048 218.413 18.0693 218.115 18.112C217.816 18.1333 217.539 18.1973 217.283 18.304C217.048 18.4107 216.845 18.5707 216.675 18.784C216.504 18.976 216.419 19.2427 216.419 19.584C216.419 19.9893 216.568 20.32 216.867 20.576C217.165 20.832 217.549 21.0453 218.019 21.216C218.509 21.3653 219.064 21.504 219.683 21.632C220.301 21.76 220.931 21.8987 221.571 22.048C222.232 22.1973 222.872 22.3787 223.491 22.592C224.131 22.8053 224.696 23.0933 225.187 23.456C225.677 23.7973 226.072 24.2347 226.371 24.768C226.669 25.28 226.819 25.92 226.819 26.688C226.819 27.776 226.595 28.6933 226.147 29.44C225.72 30.1653 225.155 30.752 224.451 31.2C223.747 31.648 222.936 31.9573 222.019 32.128C221.123 32.32 220.205 32.416 219.267 32.416C218.307 32.416 217.368 32.32 216.451 32.128C215.533 31.936 214.712 31.616 213.987 31.168C213.283 30.72 212.696 30.1333 212.227 29.408C211.779 28.6613 211.533 27.7333 211.491 26.624H215.811ZM235.238 15.456H238.566V18.496H235.238V26.688C235.238 27.456 235.366 27.968 235.622 28.224C235.878 28.48 236.39 28.608 237.158 28.608C237.414 28.608 237.659 28.5973 237.894 28.576C238.129 28.5547 238.353 28.5227 238.566 28.48V32C238.182 32.064 237.755 32.1067 237.286 32.128C236.817 32.1493 236.358 32.16 235.91 32.16C235.206 32.16 234.534 32.1067 233.894 32C233.275 31.9147 232.721 31.7333 232.23 31.456C231.761 31.1787 231.387 30.784 231.11 30.272C230.833 29.76 230.694 29.088 230.694 28.256V18.496H227.942V15.456H230.694V10.496H235.238V15.456ZM256.248 32H251.928V29.696H251.832C251.256 30.656 250.509 31.3493 249.592 31.776C248.675 32.2027 247.736 32.416 246.776 32.416C245.56 32.416 244.557 32.256 243.768 31.936C243 31.616 242.392 31.168 241.944 30.592C241.496 29.9947 241.176 29.28 240.984 28.448C240.813 27.5947 240.728 26.656 240.728 25.632V15.456H245.272V24.8C245.272 26.1653 245.485 27.1893 245.912 27.872C246.339 28.5333 247.096 28.864 248.184 28.864C249.421 28.864 250.317 28.5013 250.872 27.776C251.427 27.0293 251.704 25.8133 251.704 24.128V15.456H256.248V32ZM271.441 23.68C271.441 22.9973 271.377 22.3467 271.249 21.728C271.121 21.088 270.897 20.5333 270.577 20.064C270.278 19.5733 269.883 19.1787 269.393 18.88C268.902 18.5813 268.283 18.432 267.537 18.432C266.79 18.432 266.161 18.5813 265.649 18.88C265.137 19.1787 264.721 19.5733 264.401 20.064C264.102 20.5547 263.878 21.12 263.729 21.76C263.601 22.3787 263.537 23.0293 263.537 23.712C263.537 24.352 263.611 24.992 263.761 25.632C263.91 26.272 264.145 26.848 264.465 27.36C264.806 27.8507 265.222 28.256 265.713 28.576C266.225 28.8747 266.833 29.024 267.537 29.024C268.283 29.024 268.902 28.8747 269.393 28.576C269.905 28.2773 270.31 27.8827 270.609 27.392C270.907 26.88 271.121 26.304 271.249 25.664C271.377 25.024 271.441 24.3627 271.441 23.68ZM271.505 29.888H271.441C270.907 30.784 270.203 31.4347 269.329 31.84C268.475 32.224 267.505 32.416 266.417 32.416C265.179 32.416 264.091 32.1813 263.153 31.712C262.214 31.2213 261.435 30.5707 260.817 29.76C260.219 28.928 259.761 27.9787 259.441 26.912C259.142 25.8453 258.993 24.736 258.993 23.584C258.993 22.4747 259.142 21.408 259.441 20.384C259.761 19.3387 260.219 18.4213 260.817 17.632C261.435 16.8427 262.203 16.2133 263.121 15.744C264.038 15.2533 265.105 15.008 266.321 15.008C267.302 15.008 268.23 15.2213 269.105 15.648C270.001 16.0533 270.705 16.6613 271.217 17.472H271.281V9.152H275.825V32H271.505V29.888ZM283.931 12.896H279.387V9.152H283.931V12.896ZM279.387 15.456H283.931V32H279.387V15.456ZM291.541 23.744C291.541 24.4053 291.605 25.056 291.733 25.696C291.861 26.3147 292.075 26.88 292.373 27.392C292.693 27.8827 293.109 28.2773 293.621 28.576C294.133 28.8747 294.773 29.024 295.541 29.024C296.309 29.024 296.949 28.8747 297.461 28.576C297.995 28.2773 298.411 27.8827 298.709 27.392C299.029 26.88 299.253 26.3147 299.381 25.696C299.509 25.056 299.573 24.4053 299.573 23.744C299.573 23.0827 299.509 22.432 299.381 21.792C299.253 21.152 299.029 20.5867 298.709 20.096C298.411 19.6053 297.995 19.2107 297.461 18.912C296.949 18.592 296.309 18.432 295.541 18.432C294.773 18.432 294.133 18.592 293.621 18.912C293.109 19.2107 292.693 19.6053 292.373 20.096C292.075 20.5867 291.861 21.152 291.733 21.792C291.605 22.432 291.541 23.0827 291.541 23.744ZM286.997 23.744C286.997 22.4213 287.2 21.2267 287.605 20.16C288.011 19.072 288.587 18.1547 289.333 17.408C290.08 16.64 290.976 16.0533 292.021 15.648C293.067 15.2213 294.24 15.008 295.541 15.008C296.843 15.008 298.016 15.2213 299.061 15.648C300.128 16.0533 301.035 16.64 301.781 17.408C302.528 18.1547 303.104 19.072 303.509 20.16C303.915 21.2267 304.117 22.4213 304.117 23.744C304.117 25.0667 303.915 26.2613 303.509 27.328C303.104 28.3947 302.528 29.312 301.781 30.08C301.035 30.8267 300.128 31.4027 299.061 31.808C298.016 32.2133 296.843 32.416 295.541 32.416C294.24 32.416 293.067 32.2133 292.021 31.808C290.976 31.4027 290.08 30.8267 289.333 30.08C288.587 29.312 288.011 28.3947 287.605 27.328C287.2 26.2613 286.997 25.0667 286.997 23.744Z" fill="black"/>
</svg>
