<svg width="835" height="128" viewBox="0 0 835 128" fill="none" xmlns="http://www.w3.org/2000/svg">
<path d="M38.4 38.4L128 0V128H0L38.4 38.4Z" fill="#0A58BF"/>
<path d="M164 36.1775H174.699V94.6632H164V36.1775ZM168.597 64.6684H184.227V74.0261H168.597V64.6684ZM184.227 64.6684C187.236 64.6684 189.799 64.3899 191.916 63.8329C194.09 63.2759 195.733 62.3011 196.848 60.9086C198.018 59.5161 198.603 57.5666 198.603 55.0601C198.603 52.5535 198.018 50.604 196.848 49.2115C195.733 47.819 194.09 46.8442 191.916 46.2872C189.799 45.7302 187.236 45.4517 184.227 45.4517V36.1775C189.353 36.1775 193.811 36.7903 197.6 38.0157C201.445 39.1854 204.426 41.1349 206.543 43.8642C208.661 46.5936 209.719 50.3255 209.719 55.0601C209.719 59.7389 208.661 63.4708 206.543 66.2559C204.426 68.9852 201.445 70.9626 197.6 72.188C193.811 73.4134 189.353 74.0261 184.227 74.0261V64.6684ZM168.597 36.1775H184.227V45.4517H168.597V36.1775ZM185.982 67.6762H196.597L209.719 94.6632H197.6L185.982 67.6762Z" fill="#575757"/>
<path d="M220.242 47.8747H230.774V94.6632H220.242V47.8747ZM219.741 32H231.192V43.53H219.741V32Z" fill="#575757"/>
<path d="M241.775 47.8747H252.306V55.3107C252.919 53.7511 253.839 52.3307 255.065 51.0496C256.346 49.7128 257.99 48.6266 259.996 47.7911C262.002 46.9556 264.482 46.5379 267.435 46.5379C270.444 46.5379 273.118 47.1506 275.459 48.376C277.799 49.6014 279.638 51.6345 280.975 54.4752C282.368 57.2602 283.065 61.0479 283.065 65.8381V94.6632H272.533V66.9243C272.533 64.752 272.338 62.8303 271.948 61.1593C271.558 59.4326 270.778 58.0957 269.608 57.1488C268.494 56.1462 266.822 55.6449 264.593 55.6449C262.643 55.6449 260.72 56.2019 258.826 57.3159C256.931 58.4299 255.371 60.1567 254.145 62.4961C252.919 64.8355 252.306 67.8712 252.306 71.6031V94.6632H241.775V47.8747Z" fill="#575757"/>
<path d="M293.447 32H303.978V94.6632H293.447V32ZM305.733 66.9243L316.097 66.1723L333.064 94.6632H321.363L305.733 66.9243ZM331.56 47.8747L302.139 84.1358L297.876 74.1097L319.106 47.8747H331.56Z" fill="#575757"/>
<path d="M365.959 67.9269H376.406V94.6632H365.959V67.9269ZM356.597 46.5379C363.117 46.5379 368.048 48.4595 371.391 52.3029C374.735 56.1462 376.406 61.3542 376.406 67.9269H365.959C365.959 65.5875 365.68 63.5265 365.123 61.7441C364.621 59.906 363.674 58.4578 362.281 57.3995C360.944 56.3412 359.049 55.812 356.597 55.812C353.366 55.812 350.914 56.6475 349.242 58.3185C347.571 59.9896 346.735 61.9948 346.735 64.3342H335.702C335.702 61.215 336.51 58.3185 338.126 55.6449C339.797 52.9156 342.193 50.7154 345.314 49.0444C348.434 47.3734 352.195 46.5379 356.597 46.5379ZM366.878 65.4204L368.633 72.6893C361.501 72.2437 356.291 72.8564 353.003 74.5274C349.716 76.1427 348.072 78.2315 348.072 80.7937C348.072 82.7433 348.741 84.1915 350.078 85.1384C351.415 86.0853 353.143 86.5587 355.26 86.5587C357.043 86.5587 358.743 86.2245 360.359 85.5561C362.03 84.8877 363.368 83.8016 364.371 82.2977C365.429 80.738 365.959 78.705 365.959 76.1984L368.215 80.0418C368.048 83.161 367.352 85.9182 366.126 88.3133C364.956 90.7084 363.256 92.6023 361.027 93.9948C358.854 95.3316 356.207 96 353.087 96C350.022 96 347.292 95.443 344.896 94.329C342.5 93.1593 340.605 91.4883 339.212 89.3159C337.819 87.1436 337.123 84.4978 337.123 81.3786C337.123 78.3708 337.708 75.8921 338.878 73.9426C340.104 71.993 341.748 70.4334 343.809 69.2637C345.871 68.094 348.183 67.2585 350.747 66.7572C353.31 66.2002 355.984 65.8381 358.771 65.671C361.557 65.5039 364.259 65.4204 366.878 65.4204Z" fill="#575757"/>
<path d="M386.998 47.8747H397.53V94.6632H386.998V47.8747ZM386.497 32H397.948V43.53H386.497V32Z" fill="#575757"/>
<path d="M428.459 36.1775H439.158V94.6632H428.459V36.1775Z" fill="#575757"/>
<path d="M449.996 47.8747H460.527V55.3107C461.14 53.7511 462.06 52.3307 463.285 51.0496C464.567 49.7128 466.211 48.6266 468.217 47.7911C470.223 46.9556 472.702 46.5379 475.656 46.5379C478.665 46.5379 481.339 47.1506 483.679 48.376C486.02 49.6014 487.859 51.6345 489.196 54.4752C490.589 57.2602 491.285 61.0479 491.285 65.8381V94.6632H480.754V66.9243C480.754 64.752 480.559 62.8303 480.169 61.1593C479.779 59.4326 478.999 58.0957 477.829 57.1488C476.714 56.1462 475.043 55.6449 472.814 55.6449C470.864 55.6449 468.941 56.2019 467.047 57.3159C465.152 58.4299 463.592 60.1567 462.366 62.4961C461.14 64.8355 460.527 67.8712 460.527 71.6031V94.6632H449.996V47.8747Z" fill="#575757"/>
<path d="M520.971 96C516.625 96 512.863 94.9695 509.687 92.9086C506.567 90.792 504.143 87.8677 502.416 84.1358C500.744 80.4038 499.908 76.1427 499.908 71.3525C499.908 66.5065 500.744 62.2176 502.416 58.4856C504.143 54.7537 506.567 51.8294 509.687 49.7128C512.863 47.5962 516.625 46.5379 520.971 46.5379C524.314 46.5379 527.156 47.2063 529.496 48.5431C531.892 49.8242 533.787 51.6623 535.18 54.0574V88.564C533.842 90.8477 532.004 92.658 529.663 93.9948C527.379 95.3316 524.481 96 520.971 96ZM522.642 86.5587C525.484 86.5587 527.825 85.8903 529.663 84.5535C531.502 83.2167 532.867 81.4064 533.759 79.1227C534.706 76.7833 535.18 74.1932 535.18 71.3525C535.18 68.456 534.706 65.866 533.759 63.5822C532.867 61.2428 531.502 59.4047 529.663 58.0679C527.825 56.6754 525.484 55.9791 522.642 55.9791C520.135 55.9791 517.962 56.6475 516.123 57.9843C514.34 59.2655 512.975 61.0757 512.028 63.4151C511.136 65.7546 510.69 68.4003 510.69 71.3525C510.69 74.2489 511.136 76.8668 512.028 79.2063C512.975 81.49 514.34 83.3003 516.123 84.6371C517.962 85.9182 520.135 86.5587 522.642 86.5587ZM535.18 94.6632V32H545.711V94.6632H535.18Z" fill="#575757"/>
<path d="M597.392 94.6632H586.86V47.8747H597.392V94.6632ZM586.86 70.9347L588.198 80.376C588.198 81.8242 587.975 83.4395 587.529 85.2219C587.083 87.0044 586.247 88.7311 585.021 90.4021C583.851 92.0174 582.18 93.3542 580.007 94.4125C577.889 95.4708 575.131 96 571.732 96C568.723 96 566.048 95.3873 563.708 94.1619C561.368 92.9365 559.501 90.9034 558.108 88.0627C556.771 85.2219 556.102 81.4343 556.102 76.6997V47.8747H566.55V75.6136C566.55 77.7859 566.745 79.7354 567.135 81.4621C567.525 83.1332 568.305 84.47 569.475 85.4726C570.645 86.4195 572.345 86.893 574.574 86.893C576.524 86.893 578.446 86.336 580.341 85.2219C582.235 84.1079 583.796 82.3812 585.021 80.0418C586.247 77.6467 586.86 74.611 586.86 70.9347Z" fill="#575757"/>
<path d="M617.284 79.8747C617.563 82.3812 618.649 84.2193 620.544 85.389C622.438 86.5031 624.695 87.0601 627.314 87.0601C629.822 87.0601 631.883 86.5866 633.499 85.6397C635.115 84.6928 635.923 83.1889 635.923 81.1279C635.923 79.9025 635.394 78.9556 634.335 78.2872C633.276 77.6188 631.911 77.0896 630.24 76.6997C628.568 76.2541 626.701 75.8642 624.639 75.53C622.633 75.1958 620.6 74.7781 618.538 74.2768C616.532 73.7198 614.665 72.9678 612.938 72.0209C611.266 71.0183 609.901 69.6815 608.842 68.0105C607.839 66.2837 607.338 64.0836 607.338 61.4099C607.338 58.9034 608.146 56.5083 609.762 54.2245C611.378 51.9408 613.634 50.1027 616.532 48.7102C619.485 47.262 622.856 46.5379 626.645 46.5379C630.044 46.5379 633.165 47.2341 636.007 48.6266C638.904 49.9635 641.217 51.8294 642.944 54.2245C644.671 56.6197 645.535 59.4047 645.535 62.5796H635.254C635.032 60.0731 634.056 58.2628 632.329 57.1488C630.657 56.0348 628.651 55.4778 626.311 55.4778C623.469 55.4778 621.324 56.0348 619.875 57.1488C618.482 58.2628 617.786 59.6832 617.786 61.4099C617.786 62.7467 618.287 63.805 619.29 64.5849C620.349 65.309 621.714 65.8938 623.386 66.3394C625.113 66.7293 626.98 67.0914 628.986 67.4256C631.047 67.7598 633.081 68.1775 635.087 68.6788C637.149 69.1802 639.016 69.9043 640.687 70.8512C642.359 71.7981 643.696 73.1071 644.699 74.7781C645.758 76.3934 646.287 78.51 646.287 81.1279C646.287 84.0801 645.479 86.6702 643.863 88.8982C642.303 91.1262 640.074 92.8808 637.177 94.1619C634.279 95.3873 630.852 96 626.896 96C623.219 96 619.875 95.3037 616.866 93.9112C613.857 92.463 611.433 90.5413 609.595 88.1462C607.812 85.6954 606.864 82.9382 606.753 79.8747H617.284Z" fill="#575757"/>
<path d="M652.699 47.8747H677.356V56.8146H652.699V47.8747ZM658.884 36.1775H669.415V81.1279C669.415 82.6876 669.805 83.8573 670.585 84.6371C671.366 85.3612 672.536 85.7232 674.096 85.7232H678.693V94.6632H674.012C668.997 94.6632 665.208 93.4935 662.645 91.1541C660.138 88.8146 658.884 85.4726 658.884 81.1279V36.1775Z" fill="#575757"/>
<path d="M688.091 47.8747H698.622V94.6632H688.091V47.8747ZM698.622 70.9347L697.368 63.1645C697.368 61.7163 697.508 60.0453 697.786 58.1514C698.121 56.2576 698.817 54.4473 699.876 52.7206C700.99 50.9382 702.662 49.4621 704.891 48.2924C707.12 47.1227 710.101 46.5379 713.834 46.5379V56.8982C710.546 56.8982 707.76 57.3159 705.476 58.1514C703.191 58.9312 701.464 60.3238 700.294 62.329C699.179 64.3342 698.622 67.2028 698.622 70.9347Z" fill="#575757"/>
<path d="M722.388 47.8747H732.919V94.6632H722.388V47.8747ZM721.887 32H733.337V43.53H721.887V32Z" fill="#575757"/>
<path d="M765.825 96C760.978 96 756.771 94.9695 753.204 92.9086C749.638 90.792 746.852 87.8677 744.846 84.1358C742.896 80.4038 741.921 76.1427 741.921 71.3525C741.921 66.5065 742.896 62.2176 744.846 58.4856C746.852 54.7537 749.638 51.8294 753.204 49.7128C756.771 47.5962 760.978 46.5379 765.825 46.5379C769.001 46.5379 771.983 47.1784 774.769 48.4595C777.61 49.6849 780.062 51.5231 782.124 53.9739C784.186 56.369 785.69 59.3212 786.637 62.8303C787.585 66.3394 787.752 70.322 787.139 74.7781H747.939V66.1723H780.619L776.775 68.5953C776.997 66.4787 776.719 64.4735 775.939 62.5796C775.214 60.6301 774.016 59.0427 772.345 57.8172C770.673 56.5918 768.5 55.9791 765.825 55.9791C762.816 55.9791 760.337 56.6754 758.387 58.0679C756.436 59.4047 754.988 61.2428 754.04 63.5822C753.149 65.866 752.703 68.456 752.703 71.3525C752.703 74.1932 753.149 76.7833 754.04 79.1227C754.988 81.4064 756.436 83.2167 758.387 84.5535C760.337 85.8903 762.816 86.5587 765.825 86.5587C768.611 86.5587 770.868 85.9182 772.596 84.6371C774.323 83.3003 775.521 81.6849 776.19 79.7911H787.222C786.554 83.0218 785.244 85.8625 783.294 88.3133C781.344 90.7084 778.892 92.6023 775.939 93.9948C772.986 95.3316 769.614 96 765.825 96Z" fill="#575757"/>
<path d="M805.997 79.8747C806.276 82.3812 807.362 84.2193 809.257 85.389C811.151 86.5031 813.408 87.0601 816.027 87.0601C818.534 87.0601 820.596 86.5866 822.212 85.6397C823.828 84.6928 824.636 83.1889 824.636 81.1279C824.636 79.9025 824.106 78.9556 823.048 78.2872C821.989 77.6188 820.624 77.0896 818.952 76.6997C817.281 76.2541 815.414 75.8642 813.352 75.53C811.346 75.1958 809.312 74.7781 807.251 74.2768C805.245 73.7198 803.378 72.9678 801.651 72.0209C799.979 71.0183 798.614 69.6815 797.555 68.0105C796.552 66.2837 796.051 64.0836 796.051 61.4099C796.051 58.9034 796.859 56.5083 798.475 54.2245C800.091 51.9408 802.347 50.1027 805.245 48.7102C808.198 47.262 811.569 46.5379 815.358 46.5379C818.757 46.5379 821.878 47.2341 824.719 48.6266C827.617 49.9635 829.929 51.8294 831.657 54.2245C833.384 56.6197 834.248 59.4047 834.248 62.5796H823.967C823.744 60.0731 822.769 58.2628 821.042 57.1488C819.37 56.0348 817.364 55.4778 815.024 55.4778C812.182 55.4778 810.037 56.0348 808.588 57.1488C807.195 58.2628 806.499 59.6832 806.499 61.4099C806.499 62.7467 807 63.805 808.003 64.5849C809.062 65.309 810.427 65.8938 812.099 66.3394C813.826 66.7293 815.693 67.0914 817.698 67.4256C819.76 67.7598 821.794 68.1775 823.8 68.6788C825.862 69.1802 827.728 69.9043 829.4 70.8512C831.072 71.7981 832.409 73.1071 833.412 74.7781C834.471 76.3934 835 78.51 835 81.1279C835 84.0801 834.192 86.6702 832.576 88.8982C831.016 91.1262 828.787 92.8808 825.89 94.1619C822.992 95.3873 819.565 96 815.609 96C811.931 96 808.588 95.3037 805.579 93.9112C802.57 92.463 800.146 90.5413 798.307 88.1462C796.524 85.6954 795.577 82.9382 795.466 79.8747H805.997Z" fill="#575757"/>
</svg>
