<svg width="100" height="100" viewBox="0 0 100 100" fill="none" xmlns="http://www.w3.org/2000/svg">
<g clip-path="url(#clip0_112_22)">
<rect width="100" height="100" fill="white"/>
<path d="M77.5308 2.55426L75.6437 0.0667569L75.7345 3.18775C76.3103 22.9673 75.0315 36.4094 72.4928 45.3576C65.5846 51.0051 56.4789 55.7945 47.3101 60.2396C44.6593 59.5115 41.9245 58.5557 39.1435 57.5396C38.4075 57.2707 37.6677 56.9973 36.9259 56.7232C36.4824 56.5593 36.0382 56.3952 35.5935 56.2315C34.9264 54.8326 34.2258 53.4787 33.4942 52.1821C30.2319 46.4005 26.2846 41.6385 21.8073 39.1671C19.5541 37.9233 17.1532 37.253 14.6445 37.3448C12.1346 37.4367 9.5824 38.2891 7.02456 39.9896C1.94006 43.3698 -3.21693 50.1319 -8.30789 61.1865C-9.8421 64.5179 -11.3747 68.249 -12.9006 72.4091C-13.4457 72.8224 -13.9865 73.2312 -14.5219 73.6359C-18.9309 76.9687 -22.9736 80.0246 -26.0282 83.0508C-29.7213 86.7095 -32.1794 90.5219 -31.9913 94.9797C-31.8045 99.408 -29.0173 104.148 -23.078 109.712L-21.8125 110.897L-21.4203 109.208C-18.0877 94.8551 -14.6658 83.1221 -11.2234 73.647C-10.9884 73.4684 -10.7523 73.2887 -10.5151 73.1078C-4.9857 68.8902 1.05643 64.0701 6.61538 58.1357C11.7012 52.7064 18.5509 52.994 26.4047 55.2366C28.9338 55.9587 31.5173 56.869 34.1333 57.8262C35.2132 60.158 36.1995 62.6106 37.0811 65.1246C32.8223 67.1632 28.7554 69.163 25.1505 71.1741C19.7026 74.2134 15.1611 77.3562 12.5872 80.8241C11.2868 82.5763 10.4588 84.4503 10.3009 86.4634C10.1425 88.4828 10.666 90.5478 11.9099 92.6623C14.368 96.8406 19.7009 101.318 28.5635 106.336C31.1101 107.778 33.3988 108.439 35.4228 108.319C37.4827 108.196 39.1623 107.27 40.4523 105.761C42.9581 102.83 43.9947 97.7092 44.0221 91.8045C44.0574 84.2194 42.4252 74.9132 39.5464 66.1641C40.2648 65.822 40.9888 65.478 41.7171 65.132C42.6948 64.6675 43.6804 64.1992 44.6712 63.7265C45.6141 63.2766 46.5621 62.8226 47.5123 62.3639C48.5359 62.6304 49.5516 62.863 50.5557 63.0517C54.4858 63.7902 58.3252 63.8742 61.8355 62.6311C65.3729 61.3784 68.4651 58.8174 70.9537 54.4785C72.2028 52.3007 73.305 49.6656 74.2416 46.5043C76.4715 44.6419 78.4789 42.682 80.1897 40.6084C84.1846 35.7662 86.6073 30.2546 86.4454 23.8917C86.284 17.5472 83.5563 10.4968 77.5308 2.55426Z" fill="#00367A" stroke="#00367A" stroke-width="2"/>
<path d="M56.4687 53.5735L48.6745 53.1477L54.7711 58.0224C73.8032 73.24 85.354 85.09 91.7248 94.4674C91.4711 105.158 88.8144 117.215 85.732 129.226C83.0597 131.025 80.123 132.748 77.0661 134.486C76.2272 134.963 75.3782 135.441 74.5243 135.923C74.1534 136.132 73.7816 136.341 73.4093 136.551C71.6834 136.105 69.9716 135.717 68.2842 135.393C60.069 133.814 52.0974 133.684 45.8279 136.064C42.6541 137.269 39.8827 139.132 37.7863 141.794C35.688 144.459 34.3673 147.797 33.8984 151.791C32.9715 159.686 35.3514 170.286 41.7825 184.103C43.6818 188.184 45.9458 192.568 48.6035 197.274C48.5639 197.988 48.5239 198.698 48.4841 199.403C48.0962 206.275 47.7347 212.681 48.1544 218.112C48.6619 224.677 50.3484 230.535 55.1579 234.278C59.9092 237.977 67.0731 239.109 77.2419 237.94L81.5487 237.445L78.963 233.965C68.1446 219.406 59.8478 206.852 53.676 196.079C53.689 195.833 53.702 195.587 53.7149 195.339C54.1656 186.676 54.4614 176.969 53.2924 166.802C52.3211 158.353 57.5474 152.465 65.9334 146.861C68.4903 145.153 71.2438 143.534 74.0877 141.914C76.6215 142.631 79.1804 143.474 81.7269 144.421C80.3394 149.729 79.0654 154.856 78.1287 159.606C76.622 167.247 75.8949 174.32 77.1795 179.838C77.8346 182.652 79.0386 185.18 81.0303 187.158C83.0335 189.147 85.6655 190.412 88.8826 190.97C95.1719 192.061 103.983 190.502 115.931 186.114C119.484 184.809 122.198 183.054 123.91 180.774C125.677 178.422 126.212 175.73 125.769 172.984C124.929 167.775 120.593 162.413 114.97 157.597C107.923 151.561 98.0731 145.728 87.6954 141.401C87.856 140.797 88.0175 140.19 88.1797 139.58C88.5267 138.276 88.8769 136.96 89.2275 135.633C89.5214 134.521 89.8158 133.402 90.1089 132.276C91.0742 131.587 92.0094 130.882 92.9049 130.155C96.8628 126.945 100.219 123.199 101.976 118.577C103.758 113.888 103.789 108.576 101.587 102.479C100.524 99.5324 98.9306 96.3805 96.7395 92.9882C96.7488 89.4318 96.4968 85.997 95.9126 82.7385C94.493 74.8202 91.0914 67.7793 84.6309 62.5747C78.2062 57.3989 69.0292 54.2597 56.4687 53.5735Z" fill="#00367A" stroke="#00367A" stroke-width="5"/>
<path d="M39 23.307C39.25 19.2016 40.2917 15.7941 42.125 13.0846C43.9583 10.375 46.2917 8.19914 49.125 6.55699C51.9583 4.91483 55.125 3.76532 58.625 3.10846C62.2083 2.36949 65.7917 2 69.375 2C72.625 2 75.9167 2.24632 79.25 2.73897C82.5833 3.14951 85.625 4.01164 88.375 5.32537C91.125 6.6391 93.375 8.48652 95.125 10.8676C96.875 13.1667 97.75 16.2457 97.75 20.1048V53.2353C97.75 56.1091 97.9167 58.8597 98.25 61.4871C98.5833 64.1146 99.1667 66.0852 100 67.3989H82C81.6667 66.4136 81.375 65.4283 81.125 64.443C80.9583 63.3756 80.8333 62.3082 80.75 61.2408C77.9167 64.1146 74.5833 66.1262 70.75 67.2757C66.9167 68.4252 63 69 59 69C55.9167 69 53.0417 68.6305 50.375 67.8915C47.7083 67.1526 45.375 66.0031 43.375 64.443C41.375 62.883 39.7917 60.9124 38.625 58.5312C37.5417 56.1501 37 53.3174 37 50.0331C37 46.4203 37.625 43.4645 38.875 41.1654C40.2083 38.7843 41.875 36.8958 43.875 35.5C45.9583 34.1042 48.2917 33.0778 50.875 32.421C53.5417 31.682 56.2083 31.1072 58.875 30.6967C61.5417 30.2862 64.1667 29.9577 66.75 29.7114C69.3333 29.4651 71.625 29.0956 73.625 28.6029C75.625 28.1103 77.2083 27.4124 78.375 26.5092C79.5417 25.5239 80.0833 24.1281 80 22.3217C80 20.4332 79.6667 18.9553 79 17.8879C78.4167 16.7384 77.5833 15.8762 76.5 15.3015C75.5 14.6446 74.2917 14.2341 72.875 14.0699C71.5417 13.8235 70.0833 13.7004 68.5 13.7004C65 13.7004 62.25 14.4393 60.25 15.9173C58.25 17.3952 57.0833 19.8585 56.75 23.307H39ZM80 36.239C79.25 36.8958 78.2917 37.4295 77.125 37.8401C76.0417 38.1685 74.8333 38.4559 73.5 38.7022C72.25 38.9485 70.9167 39.1538 69.5 39.318C68.0833 39.4822 66.6667 39.6875 65.25 39.9338C63.9167 40.1801 62.5833 40.5086 61.25 40.9191C60 41.3297 58.875 41.9044 57.875 42.6434C56.9583 43.3002 56.2083 44.1624 55.625 45.2298C55.0417 46.2972 54.75 47.652 54.75 49.2941C54.75 50.8542 55.0417 52.1679 55.625 53.2353C56.2083 54.3027 57 55.1648 58 55.8217C59 56.3965 60.1667 56.807 61.5 57.0533C62.8333 57.2996 64.2083 57.4228 65.625 57.4228C69.125 57.4228 71.8333 56.848 73.75 55.6985C75.6667 54.549 77.0833 53.1942 78 51.6342C78.9167 49.992 79.4583 48.3499 79.625 46.7077C79.875 45.0656 80 43.7518 80 42.7665V36.239Z" fill="#7AB4FF"/>
<path d="M1.09026 62.479H29.4499L15.6533 22.1148H15.3467L1.09026 62.479ZM3.38968 -5H28.0702L69 105H44.0129L35.735 80.5042H-5.19485L-13.7794 105H-38L3.38968 -5Z" fill="#4798FF"/>
<path d="M179 -8.67367C165.758 68.9127 52.6391 -52.4404 71.7397 26.4723C82.3333 70.239 182.973 -94.8809 34 -8.67367C34 -40.9026 58.7619 -23.2626 90.9406 -23.2626C123.119 -23.2626 102.196 67.5865 179 -8.67367Z" fill="#00367A"/>
</g>
<defs>
<clipPath id="clip0_112_22">
<rect width="100" height="100" fill="white"/>
</clipPath>
</defs>
</svg>
