<svg width="100" height="100" viewBox="0 0 100 100" fill="none" xmlns="http://www.w3.org/2000/svg">
<path d="M51.4614 73.8854C52.0137 73.8854 52.4614 74.3332 52.4614 74.8854C52.4613 75.1313 52.3714 75.3559 52.2241 75.53C52.5673 75.729 52.7971 75.8742 53.0005 76.0114L53.2915 76.2136L53.3013 76.2204V76.2214C54.1884 76.8722 55.3837 78.1784 55.6802 80.1091L55.7095 80.3005L55.6655 80.489C55.5104 81.1522 55.3269 82.1679 55.0015 82.9919C54.6745 83.8195 54.0683 84.8172 52.8491 85.0651C51.9173 85.2545 50.632 85.369 49.4282 85.2468C48.2996 85.1322 46.8953 84.7752 46.1577 83.6989C45.5204 82.7686 45.037 81.5255 44.7847 80.2985C44.5354 79.086 44.4821 77.7459 44.8462 76.653C45.133 75.7925 46.1063 74.3161 48.2358 74.0876C50.1148 73.8861 51.2377 73.8854 51.4614 73.8854ZM50.1743 75.9323C49.7136 75.9601 49.136 76.0033 48.4497 76.0768C47.2988 76.2003 46.8537 76.955 46.7437 77.2849C46.5357 77.9093 46.5297 78.8545 46.7437 79.8952C46.9547 80.9216 47.3514 81.9027 47.8071 82.5681C48.0056 82.8576 48.5851 83.1504 49.6304 83.2565C50.6004 83.355 51.6808 83.2616 52.4507 83.1052C52.648 83.0651 52.8886 82.8957 53.1411 82.2565C53.3736 81.6677 53.5026 80.9867 53.6714 80.2399C53.4361 79.0768 52.6919 78.2542 52.1187 77.8337H52.1177C51.8103 77.6141 51.5449 77.4355 50.6772 76.9528C50.3034 76.7448 50.1154 76.3319 50.1743 75.9323ZM53.3706 12.6638C54.9007 12.5115 57.7553 12.3748 61.3013 12.5446C61.6451 12.5611 61.9684 12.6087 62.2505 12.7126C62.5372 12.8183 62.8534 13.0105 63.0542 13.3561C63.2583 13.7079 63.2533 14.0628 63.2075 14.3054C63.1642 14.5343 63.0742 14.7257 63.021 14.8327C62.5629 15.7534 61.9128 16.7192 61.0874 17.9831C60.2488 19.2671 59.1783 20.9324 57.8149 23.3249C55.0324 28.2076 53.721 31.2272 53.0278 33.28C52.6824 34.3029 52.4872 35.0964 52.3394 35.7751C52.1971 36.428 52.0797 37.0783 51.9146 37.6774C51.5326 39.0631 51.091 40.4887 50.6772 41.8054C50.2609 43.1305 49.8763 44.3341 49.5972 45.3063C49.2651 46.4632 49.0946 48.3025 49.1362 50.2575C49.1778 52.2074 49.4274 54.1496 49.8638 55.5085C50.3324 56.9678 50.3974 58.7804 50.2563 60.4802C50.1159 62.1719 49.7615 63.8541 49.312 65.1296C49.1495 65.6688 49.0584 66.1459 48.9292 66.6647C48.7957 67.2007 48.6575 67.5964 48.1938 68.6413C47.9698 69.1458 47.3782 69.3738 46.8735 69.1501C46.6787 69.0635 46.5255 68.9215 46.4233 68.7516C46.1346 68.5764 45.9411 68.2595 45.9409 67.8972C45.9409 66.3066 45.8311 63.4324 45.6147 60.5944C45.3958 57.7218 45.0759 55.0124 44.686 53.6813C43.9 50.9983 42.4587 45.3146 42.1079 41.1306C41.916 38.8413 41.6405 37.2702 41.3921 36.0407C41.15 34.8426 40.9022 33.8379 40.8101 32.8327C40.6702 31.3058 40.2999 29.1238 40.1294 26.2009C40.0682 25.1512 39.9459 24.1403 39.812 22.9206C39.6789 21.7084 39.5386 20.3226 39.4517 18.5749C39.4352 18.2435 39.4009 18.0369 39.3726 17.7819C39.349 17.5693 39.3091 17.193 39.4604 16.8015L39.5298 16.6452C39.705 16.2908 39.9769 16.0106 40.2515 15.7927C40.5724 15.5379 40.9618 15.3156 41.3833 15.1188C42.2263 14.7253 43.3174 14.3788 44.5444 14.0739C47.0066 13.4622 50.1721 12.9821 53.3706 12.6638ZM60.9116 14.5309C57.596 14.3867 54.9554 14.516 53.5688 14.654C50.4216 14.9672 47.3597 15.4355 45.0259 16.0153C43.8552 16.3062 42.9055 16.616 42.23 16.9313C41.8924 17.0889 41.6526 17.2345 41.4956 17.3591C41.4239 17.416 41.3802 17.46 41.355 17.489C41.3565 17.5081 41.3576 17.5324 41.3608 17.5612C41.3796 17.7303 41.4292 18.0633 41.4497 18.4753C41.5338 20.1659 41.6691 21.5075 41.8003 22.7028C41.9307 23.8904 42.0614 24.9696 42.1265 26.0847C42.298 29.0265 42.6381 30.8679 42.8013 32.6501C42.8802 33.5121 43.0855 34.3252 43.3521 35.6442C43.6123 36.9321 43.9014 38.5807 44.1011 40.9626C44.4345 44.9395 45.828 50.4669 46.605 53.1188C47.0633 54.6834 47.3923 57.6015 47.6089 60.4421C47.6806 61.3825 47.7388 62.329 47.7876 63.2341C48.0052 62.3515 48.178 61.3412 48.2632 60.3151C48.3942 58.7365 48.3133 57.2229 47.9595 56.1208C47.441 54.5067 47.1809 52.3512 47.1372 50.3005C47.0937 48.2548 47.2629 46.1879 47.6743 44.7546C47.9624 43.7511 48.3585 42.5122 48.769 41.2057C49.1822 39.8907 49.615 38.494 49.9868 37.1452C50.1331 36.6146 50.2206 36.1053 50.3853 35.3493C50.5444 34.6186 50.7583 33.7508 51.1333 32.6403C51.8812 30.4256 53.2568 27.2846 56.0776 22.3347C57.4688 19.8935 58.5627 18.1908 59.4126 16.8893C60.0657 15.8893 60.5465 15.1651 60.9116 14.5309Z" fill="black"/>
</svg>
