<svg width="100" height="100" viewBox="0 0 100 100" fill="none" xmlns="http://www.w3.org/2000/svg">
<path d="M51.4619 73.8852C52.014 73.8854 52.4619 74.333 52.4619 74.8852C52.4618 75.1311 52.3719 75.3556 52.2246 75.5297C52.5675 75.7286 52.7976 75.874 53.0009 76.0112L53.2919 76.2133L53.3017 76.2202V76.2211C54.1888 76.872 55.3841 78.1783 55.6806 80.1088L55.7099 80.3002L55.666 80.4887C55.5108 81.1519 55.3274 82.1675 55.0019 82.9916C54.675 83.8192 54.0687 84.8168 52.8496 85.0649C51.9179 85.2543 50.6325 85.3687 49.4287 85.2465C48.3001 85.132 46.8958 84.7749 46.1582 83.6987C45.5208 82.7683 45.0375 81.5253 44.7851 80.2983C44.5358 79.0856 44.4824 77.7457 44.8466 76.6528C45.1335 75.7922 46.1066 74.3158 48.2363 74.0873C50.1155 73.8858 51.2386 73.8852 51.4619 73.8852ZM50.1748 75.9321C49.7141 75.9599 49.1363 76.003 48.4502 76.0766C47.2991 76.2 46.8542 76.9548 46.7441 77.2846C46.536 77.909 46.5301 78.854 46.7441 79.895C46.9552 80.9214 47.3519 81.9024 47.8076 82.5678C48.0062 82.8573 48.5855 83.1502 49.6308 83.2563C50.6009 83.3547 51.6813 83.2614 52.4511 83.1049C52.6484 83.0647 52.8891 82.8954 53.1416 82.2563C53.3741 81.6673 53.503 80.9866 53.6718 80.2397C53.4366 79.0768 52.6923 78.2541 52.1191 77.8334H52.1181C51.8107 77.6139 51.5451 77.4351 50.6777 76.9526C50.3037 76.7445 50.1157 76.3318 50.1748 75.9321ZM43.1621 21.767C47.25 21.4577 53.0612 21.7217 54.2959 21.8871C54.8875 21.9666 55.3628 22.2929 55.6494 22.5297C55.8293 22.6785 56.0568 22.9048 56.2021 23.2407C56.3524 23.5882 56.3741 23.9559 56.3105 24.3198C56.1023 25.5101 55.6315 26.4472 55.1787 27.2407C54.702 28.0759 54.3167 28.6486 54.0634 29.3227C53.2043 31.6091 52.3092 33.7734 51.6181 35.0766C51.2958 35.6845 50.8316 37.1444 50.3574 38.9086C49.8951 40.6284 49.4538 42.5148 49.164 43.8823C48.8554 45.3398 48.909 47.5187 49.2939 51.8549C49.5203 54.4057 50.4045 57.801 50.8877 59.8979C51.3973 62.1098 51.8458 64.0186 52.164 65.4174C52.3232 66.1174 52.4523 66.7001 52.5419 67.1362C52.5866 67.3534 52.6227 67.5423 52.6484 67.6948C52.6699 67.8224 52.6978 67.9961 52.6982 68.143V68.3305L52.6308 68.5063C52.4644 68.9362 52.1262 69.1956 51.7343 69.3403C51.4019 69.463 50.97 69.528 50.4345 69.5688C49.3375 69.6522 47.8008 69.6466 46.0556 69.8373C45.8764 70.0076 45.6349 70.1136 45.3681 70.1137C44.816 70.1137 44.3684 69.6657 44.3681 69.1137C44.3681 68.8275 44.3685 65.402 43.9492 57.728C43.7093 53.3376 42.708 48.0806 42.2607 44.2856C41.8155 40.5086 41.6479 38.1394 41.5625 36.5444C41.4739 34.8908 41.4755 34.2104 41.374 33.6284C41.1996 32.6285 40.903 31.3624 40.706 29.0375C40.5872 27.6352 40.6587 25.1557 40.9541 23.808C41.1129 23.0833 41.3996 22.4879 41.9316 22.1245C42.4265 21.7864 42.9867 21.7803 43.1621 21.767ZM54.0302 23.8696C52.9494 23.7247 47.2792 23.4611 43.3134 23.7612C43.1683 23.7722 43.111 23.776 43.0615 23.7846C43.0303 23.8346 42.9675 23.9617 42.9072 24.2368C42.6678 25.3299 42.5914 27.5959 42.6992 28.8686C42.8865 31.0793 43.1572 32.2162 43.3437 33.2856C43.4725 34.0244 43.4796 34.9448 43.5595 36.4379C43.6426 37.9903 43.8068 40.3173 44.247 44.0522C44.6658 47.6044 45.7032 53.1717 45.9462 57.6186C46.2324 62.8556 46.3229 66.1327 46.3525 67.7973C47.9621 67.6518 49.5169 67.6328 50.2822 67.5746C50.3964 67.566 50.4967 67.5562 50.5839 67.5463C50.5834 67.5439 50.5834 67.541 50.583 67.5385C50.4978 67.1241 50.3726 66.5586 50.2138 65.8608C49.8959 64.4634 49.4522 62.5717 48.9394 60.3461C48.4825 58.3631 47.5441 54.7624 47.3017 52.0317C46.9225 47.7595 46.8259 45.2705 47.208 43.4672C47.504 42.07 47.9528 40.1484 48.4257 38.3891C48.8866 36.6745 49.4029 34.9834 49.8505 34.1391C50.477 32.9578 51.3352 30.8972 52.1914 28.6186C52.5193 27.746 53.054 26.9281 53.4414 26.2495C53.8428 25.5461 54.1728 24.861 54.3271 24.0346C54.2645 23.9863 54.2051 23.9455 54.1503 23.9164C54.082 23.8802 54.0419 23.8713 54.0302 23.8696Z" fill="black"/>
</svg>
