<svg width="100" height="100" viewBox="0 0 100 100" fill="none" xmlns="http://www.w3.org/2000/svg">
<path d="M51.4619 73.8848C52.0139 73.885 52.4617 74.3328 52.4619 74.8848C52.4619 75.1306 52.3718 75.3552 52.2246 75.5293C52.5677 75.7283 52.7976 75.8735 53.001 76.0107L53.292 76.2129L53.3018 76.2197V76.2207C54.1889 76.8714 55.384 78.1778 55.6807 80.1084L55.71 80.2998L55.666 80.4883C55.5109 81.1514 55.3273 82.1671 55.0019 82.9912C54.675 83.8188 54.0687 84.8164 52.8496 85.0644C51.9179 85.2539 50.6325 85.3682 49.4287 85.2461C48.3 85.1315 46.8958 84.7747 46.1582 83.6982C45.5208 82.7678 45.0375 81.5249 44.7851 80.2978C44.5359 79.0852 44.4825 77.7452 44.8467 76.6523C45.1337 75.7917 46.107 74.3153 48.2363 74.0869C50.1155 73.8854 51.2386 73.8848 51.4619 73.8848ZM50.1748 75.9316C49.7141 75.9595 49.1364 76.0026 48.4502 76.0762C47.2997 76.1995 46.8545 76.9541 46.7441 77.2842C46.536 77.9085 46.5302 78.8537 46.7441 79.8945C46.9552 80.921 47.3519 81.902 47.8076 82.5674C48.006 82.857 48.5852 83.1497 49.6309 83.2559C50.6009 83.3543 51.6813 83.261 52.4512 83.1045C52.6484 83.0642 52.8892 82.8949 53.1416 82.2559C53.3741 81.667 53.5031 80.986 53.6719 80.2393C53.4365 79.0763 52.6924 78.2535 52.1191 77.833H52.1182C51.8108 77.6135 51.5454 77.4348 50.6777 76.9521C50.3037 76.7441 50.1157 76.3314 50.1748 75.9316ZM57.0478 16.083C57.8062 16.1148 58.5398 16.2462 59.0791 16.6719C59.3978 16.9236 59.6193 17.2636 59.7129 17.6943C59.7954 18.0749 59.7678 18.482 59.7031 18.8848C59.5745 19.6854 59.2286 20.8605 58.6934 22.5898C57.6022 26.1152 55.6446 32.1827 54.2451 37.7539C52.8487 43.3127 52.0671 48.1981 51.6641 51.0107C51.2643 54.3831 51.1669 55.4691 51.0205 58.0791L50.9863 59.9932C50.9509 62.1911 50.8943 65.1789 50.6689 68.3926C50.6301 68.9433 50.1524 69.3589 49.6016 69.3203C49.0508 69.2815 48.6352 68.8028 48.6738 68.2519C48.9699 64.0296 48.9692 60.2337 49.0205 58.0332L49.0225 58C49.173 55.31 49.2732 54.1878 49.6807 50.751L49.6826 50.7383L49.6836 50.7266C50.0919 47.8773 50.8861 42.9179 52.3057 37.2666C53.7221 31.6278 55.7018 25.4887 56.7822 21.998C57.3326 20.2198 57.6273 19.1975 57.7285 18.5674C57.7571 18.3891 57.7626 18.2743 57.7627 18.2051C57.656 18.1636 57.4236 18.1003 56.9639 18.0811C56.3342 18.0547 55.4364 18.111 54.1699 18.2607C51.0167 18.6335 48.0653 18.8167 46.04 19.0166C44.9952 19.1197 44.2108 19.2248 43.6963 19.3525C43.6119 19.3735 43.5422 19.3942 43.4853 19.4121C43.3393 21.8663 43.5048 23.6671 43.748 25.1611C44.0203 26.8335 43.8987 28.956 45.7266 36.5879C46.2657 38.8392 47.1279 42.0171 47.4883 46.1807C47.6809 48.4064 47.9119 49.8764 47.9375 52.6894C47.9867 58.1085 47.9863 61.8643 47.9863 62.6543C47.9863 63.2066 47.5386 63.6543 46.9863 63.6543C46.4344 63.6539 45.9863 63.2063 45.9863 62.6543C45.9863 61.8676 45.9867 58.1185 45.9375 52.708C45.9129 49.998 45.6962 48.6768 45.4951 46.3535C45.1502 42.369 44.3308 39.3485 43.7812 37.0537C41.9357 29.3476 42.0062 26.9064 41.7744 25.4824C41.4967 23.7767 41.3118 21.7115 41.5117 18.8906L41.5244 18.7803C41.6081 18.2404 42.0014 17.9258 42.2559 17.7744C42.5417 17.6044 42.8861 17.4938 43.2148 17.4121C43.8855 17.2456 44.8004 17.1293 45.8437 17.0264C47.9952 16.814 50.7805 16.6473 53.9346 16.2744C55.2287 16.1214 56.2546 16.0498 57.0478 16.083Z" fill="black"/>
</svg>
